<svg version="1.1" id="Layer_1" xmlns="http://www.w3.org/2000/svg" xmlns:xlink="http://www.w3.org/1999/xlink" x="0px" y="0px"
	 width="100%" viewBox="0 0 1024 1024" enable-background="new 0 0 1024 1024" xml:space="preserve">
<path fill="#FBF9F7" opacity="1.000000" stroke="none" 
	d="
M1025.000000,374.000000 
	C1025.000000,591.333313 1025.000000,808.166687 1025.000000,1025.000000 
	C683.666687,1025.000000 342.333344,1025.000000 1.000000,1025.000000 
	C1.000000,683.666687 1.000000,342.333344 1.000000,1.000000 
	C342.333344,1.000000 683.666687,1.000000 1025.000000,1.000000 
	C1025.000000,125.166664 1025.000000,249.333328 1025.000000,374.000000 
M868.993469,85.950035 
	C868.993469,85.950035 869.068726,85.939301 868.525330,85.376175 
	C864.581604,84.841034 860.637817,84.305893 856.544983,83.789528 
	C856.544983,83.789528 856.531250,83.939201 855.927307,83.297073 
	C849.470581,82.874420 843.013977,82.084549 836.557129,82.082336 
	C625.030701,82.009804 413.504303,81.998314 201.977905,82.052002 
	C192.342804,82.054443 182.707886,82.745605 172.363129,83.034912 
	C171.892624,83.096008 171.422119,83.157104 170.213699,83.181816 
	C166.507965,83.843323 162.802231,84.504829 158.318909,85.152794 
	C153.853653,86.426384 149.280884,87.410149 144.940323,89.019958 
	C113.494400,100.682503 91.250725,121.452156 80.804527,154.755814 
	C76.977211,167.620697 75.977188,180.798172 75.981110,194.163681 
	C76.044090,408.702911 75.999001,623.242188 76.177658,837.781250 
	C76.185478,847.169861 78.099281,856.556946 79.161072,866.699341 
	C92.496346,916.318298 137.491211,943.073669 184.027603,942.935120 
	C185.694031,942.953552 187.360443,942.988037 189.026871,942.988220 
	C353.495728,943.004578 517.964600,943.033264 682.433472,943.023743 
	C736.588196,943.020630 790.742920,942.918274 845.794434,942.982788 
	C852.994385,942.112976 860.276978,941.668457 867.378052,940.289429 
	C884.976624,936.871704 900.731506,929.261719 914.425354,917.704102 
	C929.223328,905.214600 939.994873,889.960999 945.456726,870.407715 
	C946.933411,860.575256 949.656067,850.747437 949.692261,840.909668 
	C950.020569,751.582153 949.876282,662.252930 949.877319,572.924194 
	C949.878784,445.764099 949.870117,318.604034 949.916626,191.443954 
	C949.921143,179.056046 948.768799,166.873840 944.905457,154.285172 
	C932.922424,118.365387 907.814575,96.495895 871.233459,85.981224 
	C870.498474,85.948349 869.763489,85.915474 868.993469,85.950035 
z"/>
<path fill="#B18ED5" opacity="1.000000" stroke="none" 
	d="
M183.112823,942.843384 
	C137.491211,943.073669 92.496346,916.318298 79.404495,866.049927 
	C79.099266,860.004761 78.072708,854.609192 78.070808,849.213257 
	C77.991890,625.389343 78.002815,401.565369 78.036606,177.741440 
	C78.036926,175.610184 78.463196,173.474777 78.745392,171.348572 
	C79.511032,165.579773 80.306183,159.814896 81.089638,154.048462 
	C91.250725,121.452156 113.494400,100.682503 144.940323,89.019958 
	C149.280884,87.410149 153.853653,86.426384 158.990601,85.414978 
	C163.425415,84.857498 167.188507,84.037842 170.951614,83.218201 
	C171.422119,83.157104 171.892624,83.096008 173.019485,83.349548 
	C185.432892,83.772476 197.189758,83.934822 208.947037,83.975700 
	C224.498947,84.029762 240.051163,83.988602 255.603256,83.988609 
	C407.617920,83.988678 559.632629,83.988815 711.647278,83.988808 
	C720.794067,83.988808 729.940796,83.990173 739.087585,83.986679 
	C778.235474,83.971718 817.383362,83.955170 856.531250,83.939201 
	C856.531250,83.939201 856.544983,83.789528 856.918335,84.082489 
	C861.217346,84.896736 865.143066,85.418022 869.068726,85.939301 
	C869.068726,85.939301 868.993469,85.950035 869.157959,86.188339 
	C870.199402,86.330475 871.076294,86.234314 871.953247,86.138153 
	C907.814575,96.495895 932.922424,118.365387 944.666077,154.904755 
	C945.619446,164.990417 947.844849,174.455566 947.853394,183.922729 
	C948.049683,402.150024 948.026489,620.377502 947.918396,838.604919 
	C947.914490,846.513306 946.651917,854.422424 945.943665,862.328308 
	C945.684082,865.225281 945.330261,868.113892 945.019531,871.006287 
	C939.994873,889.960999 929.223328,905.214600 914.425354,917.704102 
	C900.731506,929.261719 884.976624,936.871704 867.378052,940.289429 
	C860.276978,941.668457 852.994385,942.112976 845.045837,942.651001 
	C841.811340,942.212219 839.325439,942.011658 836.839539,942.011475 
	C620.684204,941.999512 404.528931,942.000854 188.373611,942.039795 
	C186.619965,942.040100 184.866409,942.563965 183.112823,942.843384 
M214.007904,651.011230 
	C214.007904,651.011230 214.078995,651.043884 213.607819,651.244812 
	C213.419968,651.522339 213.232117,651.799805 213.008423,652.007629 
	C213.008423,652.007629 213.077682,652.044373 212.607239,652.244812 
	C212.419830,652.522034 212.232437,652.799255 212.009155,653.006348 
	C212.009155,653.006348 212.077560,653.045349 211.605804,653.244080 
	C211.419189,653.521973 211.232574,653.799927 211.006805,654.008911 
	C211.006805,654.008911 211.077194,654.045410 210.609116,654.247070 
	C210.421967,654.523071 210.234818,654.799133 210.016052,655.004822 
	C210.016052,655.004822 210.086060,655.037231 209.554474,655.351562 
	C209.387161,655.927490 209.219849,656.503418 209.008636,657.018127 
	C209.008636,657.018127 209.083344,657.027832 208.608078,657.240112 
	C208.416229,657.522278 208.224380,657.804504 208.018646,658.015015 
	C208.018646,658.015015 208.090302,658.029358 207.548126,658.319519 
	C207.388092,658.691284 207.228043,659.063110 206.899734,660.061829 
	C198.367477,671.016357 192.997971,683.191956 190.665161,697.035583 
	C186.370865,722.519287 196.931152,747.751831 218.444046,761.968567 
	C228.780243,768.799194 240.400742,771.954041 251.876999,775.232605 
	C260.494476,775.827454 269.105713,776.566589 277.732758,776.940063 
	C280.813354,777.073486 283.932251,776.321960 287.831238,775.989685 
	C289.978729,775.306458 292.080597,774.337341 294.281067,773.986389 
	C308.815887,771.668457 322.734253,767.350525 336.103241,761.258728 
	C363.126373,748.945312 385.036255,729.938171 404.916473,708.337280 
	C406.113647,707.036499 406.509064,704.997803 407.100647,703.692749 
	C419.026337,713.121826 428.871002,721.042603 438.859924,728.777039 
	C466.398346,750.099915 495.028290,769.764648 526.258850,786.417480 
	C528.863281,787.583374 531.467773,788.749329 534.038086,789.997742 
	C534.038086,789.997742 534.036438,789.908569 534.348206,790.437561 
	C534.920105,790.601685 535.492065,790.765808 536.008789,790.992615 
	C536.008789,790.992615 536.027405,790.911194 536.413818,791.481445 
	C537.302368,791.634216 538.190979,791.787048 539.004517,791.965332 
	C539.004517,791.965332 539.031799,791.890930 539.322693,792.570251 
	C540.907654,793.029297 542.492676,793.488342 544.005676,793.973145 
	C544.005676,793.973145 544.028076,793.900085 544.294434,794.561523 
	C551.616699,797.572510 558.752563,801.199097 566.294861,803.483582 
	C592.941223,811.554260 620.083862,815.529358 648.075134,813.142273 
	C662.725891,811.892822 676.806885,808.626160 690.693298,804.148315 
	C691.903931,803.757874 692.826599,802.474304 694.536011,801.175171 
	C726.869751,788.137939 752.194458,767.119690 768.275574,735.822021 
	C770.815369,730.878967 772.600647,725.390137 773.685242,719.944580 
	C774.055786,718.083862 771.617371,714.341736 769.719910,713.717957 
	C767.769836,713.076843 764.818176,715.010559 762.502869,716.202271 
	C761.663208,716.634460 761.387451,718.174500 760.868896,719.216248 
	C755.342957,730.317200 748.400574,740.393982 739.587646,749.177551 
	C719.899963,768.799500 696.666565,781.335388 668.318848,784.329407 
	C667.340576,784.232178 666.358765,784.023560 665.384644,784.055054 
	C656.471802,784.342834 647.561340,784.710266 638.647705,784.969360 
	C635.466370,785.061890 632.278259,784.921814 628.245361,784.972839 
	C624.958557,784.513245 621.647827,784.181641 618.388550,783.574280 
	C587.119568,777.747070 558.357117,765.205566 530.695618,750.056152 
	C494.964020,730.486938 462.986237,705.307617 429.982483,681.671631 
	C427.332550,679.773743 427.646667,678.441650 429.262268,676.066223 
	C435.157654,667.398132 441.122223,658.753540 446.523163,649.776672 
	C474.686066,602.967285 496.094055,552.996582 515.043213,501.916046 
	C522.675171,481.342712 529.714050,460.549652 537.272766,439.948334 
	C538.120483,437.637970 540.229370,434.834503 542.382446,434.097534 
	C611.657104,410.385101 667.056335,369.017395 705.188782,305.927612 
	C719.764221,281.812714 729.338318,256.002777 728.019836,227.078247 
	C727.137878,207.730804 715.030640,191.166687 696.743225,184.825439 
	C682.155457,179.767090 667.389099,179.831879 652.468323,182.718735 
	C630.149780,187.036926 612.367371,199.488434 596.778076,215.107056 
	C571.871094,240.060913 552.577332,269.106354 536.681641,300.494080 
	C521.170105,331.123199 508.917755,363.121979 495.977631,395.222565 
	C494.674408,398.839447 493.371216,402.456360 492.056122,405.993347 
	C492.056122,405.993347 492.120331,406.042419 491.444519,406.319183 
	C490.318268,409.903381 489.191986,413.487579 488.029663,417.000580 
	C488.029663,417.000580 488.105988,417.024078 487.484589,417.414612 
	C485.752777,423.324036 480.454987,423.132233 476.269562,422.814484 
	C462.453400,421.765564 448.691284,419.995392 434.913635,418.455231 
	C430.956879,418.012909 427.017853,417.412079 422.312012,416.867706 
	C405.712128,412.122650 390.095856,405.313232 376.078003,395.069275 
	C343.598175,371.333649 330.976959,329.566284 346.059265,293.559906 
	C353.907806,274.822754 366.087250,259.745361 386.417145,253.344910 
	C397.834656,249.750320 409.491821,248.758163 421.313751,251.617599 
	C425.967987,252.743362 429.572815,250.912811 430.671967,247.242966 
	C431.725250,243.726227 429.569611,239.783356 425.567719,238.093018 
	C424.354004,237.580368 423.041443,237.037796 421.758209,236.995743 
	C412.130951,236.680222 402.285339,235.077682 392.907684,236.504425 
	C356.850586,241.990204 331.115875,261.764069 317.337891,295.682343 
	C305.433075,324.989258 306.631622,354.054779 323.456665,381.327118 
	C338.320648,405.420715 360.822876,420.225250 386.956390,429.761200 
	C414.780426,439.914001 443.664520,443.681671 473.190979,443.038544 
	C475.093109,442.997101 476.996979,443.033173 479.637207,443.033173 
	C454.452728,517.419800 429.143799,590.842224 391.290802,659.334656 
	C369.377899,646.179138 347.329620,635.345581 323.124481,629.626221 
	C315.087738,627.727295 306.857910,626.645569 299.313843,625.032104 
	C299.525726,624.825073 299.743225,624.622986 299.937195,624.400452 
	C299.950562,624.385132 299.775421,624.123718 299.709259,624.132812 
	C297.813416,624.392029 295.920319,624.671326 293.182678,625.020203 
	C291.772308,624.986816 290.361908,624.953491 288.356293,624.357605 
	C283.237213,624.570374 278.118134,624.783203 272.106812,624.989014 
	C267.080139,626.020752 262.053436,627.052490 257.012482,628.001953 
	C257.012482,628.001953 257.056396,628.073059 256.244415,628.026917 
	C251.837357,629.717773 247.430298,631.408630 243.009476,633.025269 
	C243.009476,633.025269 243.080078,633.051758 242.380219,633.024963 
	C241.596893,633.379761 240.813553,633.734497 240.023056,634.004028 
	C240.023056,634.004028 240.067871,634.076965 239.444916,634.072266 
	C238.973038,634.412903 238.501160,634.753601 238.008484,635.012634 
	C238.008484,635.012634 238.070496,635.069580 237.319275,635.031860 
	C234.560059,636.723816 231.800842,638.415771 229.015381,640.025574 
	C229.015381,640.025574 229.090073,640.068848 228.389603,640.084900 
	C226.940796,641.085693 225.491989,642.086487 224.001511,643.022461 
	C224.001511,643.022461 224.075485,643.044067 223.595551,643.243103 
	C223.408630,643.526550 223.221710,643.809998 223.032196,644.013672 
	C223.032196,644.013672 223.094254,644.063843 222.434296,644.096985 
	C221.956772,644.727844 221.479248,645.358704 220.780807,646.125061 
	C220.780807,646.125061 220.529037,646.063477 219.897842,646.193054 
	C219.607117,646.489319 219.316406,646.785583 219.012512,647.011719 
	C219.012512,647.011719 219.080017,647.034729 218.601654,647.242249 
	C218.410843,647.525330 218.220047,647.808411 218.016968,648.019226 
	C218.016968,648.019226 218.089691,648.028809 217.607437,648.233704 
	C217.410767,648.514343 217.214096,648.794983 217.012039,649.006775 
	C217.012039,649.006775 217.073624,649.038025 216.452560,649.055786 
	C215.981262,649.398682 215.509964,649.741577 215.003433,650.015015 
	C215.003433,650.015015 215.073624,650.048645 214.603638,650.248596 
	C214.417114,650.525940 214.230606,650.803284 214.007904,651.011230 
M659.984558,690.016907 
	C659.984558,690.016907 659.973206,690.088562 659.764771,689.606445 
	C659.480286,689.413025 659.195862,689.219604 658.983826,689.017700 
	C658.983826,689.017700 658.973816,689.089905 658.763794,688.611084 
	C658.480103,688.419861 658.196411,688.228699 657.985657,688.019104 
	C657.985657,688.019104 657.961182,688.090332 657.759888,687.612488 
	C657.479797,687.420837 657.199646,687.229187 656.991821,687.018188 
	C656.991821,687.018188 656.960449,687.086121 656.762817,686.612061 
	C656.484436,686.424316 656.206116,686.236511 655.998657,686.017151 
	C655.998657,686.017151 655.961426,686.085205 655.649902,685.548889 
	C655.070862,685.387085 654.491882,685.225281 653.972168,685.010864 
	C653.972168,685.010864 653.968506,685.090088 653.762939,684.613953 
	C653.481995,684.423157 653.201050,684.232361 652.995117,684.045166 
	C652.995117,684.045166 652.953552,684.107727 652.677917,683.447205 
	C649.758911,682.317871 646.839905,681.188599 643.990356,680.026917 
	C643.990356,680.026917 643.980469,680.102905 643.584106,679.476501 
	C638.148804,678.315308 632.752563,676.535217 627.265869,676.189514 
	C622.906921,675.914795 618.437439,677.394653 614.007568,678.022034 
	C614.007568,678.022034 614.075195,678.052246 613.271362,678.026184 
	C611.191223,678.713196 609.111145,679.400208 607.014282,680.001648 
	C607.014282,680.001648 607.060669,680.075500 606.336426,680.038879 
	C604.902283,680.721375 603.468140,681.403870 602.011292,682.001526 
	C602.011292,682.001526 602.060669,682.074219 601.442078,682.074036 
	C600.972473,682.413696 600.502930,682.753357 600.012634,683.006531 
	C600.012634,683.006531 600.068420,683.075928 599.332703,683.035156 
	C597.568970,684.062317 595.805176,685.089539 594.001282,686.044128 
	C594.001282,686.044128 594.081360,686.065979 593.453125,686.069763 
	C592.974243,686.411987 592.495361,686.754272 592.014771,687.022217 
	C592.014771,687.022217 592.083252,687.051208 591.453613,687.059082 
	C590.977173,687.403381 590.500732,687.747620 590.008362,688.018616 
	C590.008362,688.018616 590.076050,688.050781 589.302246,688.038391 
	C586.545959,689.395752 583.789673,690.753174 581.003235,692.037537 
	C581.003235,692.037537 581.079224,692.059021 580.380066,692.028931 
	C579.594604,692.382324 578.809204,692.735718 578.010864,693.008057 
	C578.010864,693.008057 578.064392,693.070312 577.371765,693.026489 
	C576.591675,693.380371 575.811584,693.734314 575.048279,694.007141 
	C575.048279,694.007141 575.067932,694.087646 574.353882,694.035400 
	C573.246338,694.726746 572.138855,695.418152 571.005493,696.034912 
	C571.005493,696.034912 571.080383,696.060059 570.342468,696.020569 
	C569.523132,695.597595 568.703796,695.174622 568.241760,694.199951 
	C578.363586,685.306824 588.220642,676.084778 598.706726,667.644226 
	C604.986633,662.589355 611.842102,657.848938 619.155212,654.560059 
	C635.324463,647.288452 651.734436,642.089600 670.173157,647.692932 
	C685.528503,652.359314 701.558960,651.018677 716.969482,646.717285 
	C737.615173,640.954712 754.536133,628.510864 770.595398,614.881592 
	C775.465515,610.748352 775.231689,607.892700 769.483643,605.024841 
	C762.567017,601.573914 755.168030,599.090088 747.547913,595.526306 
	C739.078003,595.062195 730.611450,594.432983 722.135559,594.256531 
	C720.153381,594.215332 718.139282,595.709717 715.377625,596.838196 
	C696.965881,600.874451 680.368713,608.898071 666.381958,621.390930 
	C653.897949,632.541382 639.337036,638.910400 622.905273,643.853943 
	C624.126831,642.533630 624.802368,641.825989 625.453308,641.096497 
	C638.859070,626.073425 652.492310,611.244995 665.588623,595.956787 
	C675.106445,584.846130 683.789734,573.183044 697.480042,566.409668 
	C703.784546,563.290527 710.036621,561.493713 716.907227,560.930603 
	C725.667053,560.212646 734.631348,560.156677 743.108459,558.139038 
	C779.863647,549.390625 803.836243,524.712952 821.808716,493.088135 
	C822.931091,491.113159 822.197388,488.083344 822.306458,485.949890 
	C818.355408,485.949890 815.703674,485.868408 813.058289,485.962555 
	C788.774414,486.826752 766.807251,494.709930 747.037048,508.554413 
	C732.963501,518.409729 722.184814,531.519287 712.331665,545.478638 
	C708.259644,551.247803 703.292969,556.301025 695.495056,559.427979 
	C702.059875,548.071106 708.228821,537.715393 714.093384,527.190063 
	C727.580872,502.983398 738.191895,477.547241 745.953003,450.946320 
	C746.484009,449.126526 745.841309,446.964325 745.744446,444.961334 
	C745.060425,444.853882 744.376404,444.746429 743.692383,444.638977 
	C734.533997,464.927582 725.791687,485.417511 716.100952,505.448578 
	C706.277466,525.754211 694.844238,545.184387 680.446289,562.759705 
	C680.367493,561.027832 680.875793,559.460510 680.894714,557.887329 
	C681.079163,542.512756 685.326416,528.241577 691.437561,514.211853 
	C694.437622,507.324432 696.554626,499.604523 696.956055,492.147491 
	C697.446289,483.042389 696.348022,473.710205 694.812561,464.667114 
	C691.618469,445.855164 683.376831,429.350006 669.954712,415.618225 
	C666.269592,411.848083 663.504211,412.490723 662.097473,417.458771 
	C659.747864,425.756866 657.532715,434.094788 655.382324,442.447174 
	C648.826904,467.908936 651.428650,492.508240 664.567200,515.215393 
	C672.890686,529.600647 677.059387,543.795349 672.100159,560.178833 
	C669.123535,570.012573 667.562744,580.249146 660.195068,588.269531 
	C646.473328,603.206909 632.965515,618.340820 619.019226,633.030396 
	C618.899231,632.913086 618.779236,632.795776 618.804443,631.961060 
	C621.340027,625.631897 623.914490,619.318054 626.403992,612.970825 
	C634.360657,592.685181 640.313110,572.096436 637.041077,549.869690 
	C633.334229,524.689331 619.620911,505.685089 600.446472,490.088898 
	C595.666382,486.200806 592.208618,487.951752 591.074097,494.139496 
	C589.846863,500.832733 588.380432,507.494415 587.466675,514.230652 
	C584.363281,537.109375 584.798706,559.757507 593.780151,581.456726 
	C598.547363,592.974304 604.097107,604.166260 609.139832,615.573120 
	C610.247925,618.079712 611.539246,620.945679 611.320068,623.525024 
	C610.156982,637.213196 605.444702,649.370178 594.702820,658.615051 
	C591.550110,661.328369 588.619812,664.302124 585.439819,666.981201 
	C578.294739,673.000854 571.057068,678.910706 563.857117,684.865234 
	C565.026184,678.864929 567.098816,673.650208 569.160950,668.431458 
	C578.970581,643.606018 573.630981,615.606812 555.748352,598.083191 
	C550.313782,592.757751 545.834412,593.932678 543.990173,601.349854 
	C539.963257,617.546082 543.070374,633.088623 549.173462,648.101685 
	C553.550537,658.869080 556.732666,669.670044 556.098877,681.463440 
	C555.627930,690.227478 553.402893,697.419067 544.933960,702.055298 
	C539.007263,705.299744 533.757812,709.835022 528.419495,714.063477 
	C527.052429,715.146423 526.494873,717.251221 525.362427,719.243652 
	C534.602051,720.690552 540.168091,715.573975 546.455688,712.100342 
	C562.499268,703.236938 579.286621,698.772766 597.543335,704.595032 
	C609.299561,708.344177 621.201965,711.970886 633.675354,709.814758 
	C643.770996,708.069641 653.685730,705.277832 664.243347,702.787781 
	C664.490173,702.498413 664.737000,702.209045 664.985657,701.990967 
	C664.985657,701.990967 664.915527,701.978455 665.392029,701.768921 
	C665.581787,701.485474 665.771606,701.202087 665.978699,700.989441 
	C665.978699,700.989441 665.906677,700.978638 666.463562,700.585449 
	C666.278015,699.397400 666.092468,698.209351 665.986328,697.016663 
	C665.986328,697.016663 665.931335,697.074036 665.921265,696.452942 
	C665.583862,695.978271 665.246460,695.503601 664.977905,695.006775 
	C664.977905,695.006775 664.965637,695.078064 664.715332,694.571533 
	C664.388000,694.400024 664.060608,694.228577 663.235779,693.761353 
	C662.481750,692.893555 661.727722,692.025757 660.778442,690.649414 
	C660.489746,690.441345 660.201111,690.233215 659.984558,690.016907 
M739.393494,436.772308 
	C739.592529,436.497620 739.791565,436.222931 739.996216,436.003052 
	C739.996216,436.003052 739.947388,435.977600 740.564575,435.942688 
	C741.031616,435.600708 741.498657,435.258759 741.994751,434.985474 
	C741.994751,434.985474 741.925964,434.956635 742.401306,434.758270 
	C742.586792,434.477356 742.772278,434.196411 742.989441,433.985352 
	C742.989441,433.985352 742.917358,433.959045 743.395020,433.759064 
	C743.585022,433.478851 743.775024,433.198639 743.989014,432.986938 
	C743.989014,432.986938 743.919189,432.967102 744.430969,432.734955 
	C744.605469,432.412079 744.779968,432.089203 745.130188,431.394775 
	C745.301514,431.161316 745.529846,431.019806 746.334778,430.784607 
	C746.550598,430.496399 746.766418,430.208191 746.989929,429.989807 
	C746.989929,429.989807 746.920227,429.981079 747.398132,429.767944 
	C747.592407,429.485352 747.786621,429.202728 747.989563,428.989746 
	C747.989563,428.989746 747.919922,428.980774 748.397644,428.769348 
	C748.593018,428.487885 748.788452,428.206451 748.983459,427.994629 
	C748.983459,427.994629 748.927246,427.953552 749.730591,428.154358 
	C750.148987,432.068207 750.456848,435.998535 751.036560,439.888367 
	C751.292114,441.603149 752.099792,443.235687 752.888855,445.595764 
	C752.901794,446.079193 752.914734,446.562653 752.411743,447.511841 
	C753.322510,449.638184 754.233276,451.764526 755.110962,453.958008 
	C755.110962,453.958008 755.044495,453.923553 755.247437,454.396729 
	C755.526855,454.585144 755.806335,454.773590 756.014282,454.985382 
	C756.014282,454.985382 756.038879,454.914368 756.237549,455.396118 
	C756.520630,455.585541 756.803650,455.774963 757.021606,455.928497 
	C757.021606,455.928497 757.078735,455.880890 757.105713,456.561310 
	C757.778259,457.000214 758.450806,457.439148 759.103271,457.945557 
	C759.103271,457.945557 759.036438,457.923370 759.430359,458.530334 
	C763.438721,461.212433 767.605652,462.336761 772.342712,459.748260 
	C772.342712,459.748260 772.467529,459.921875 773.277710,459.945374 
	C774.175720,459.273560 775.073730,458.601776 775.997070,457.992218 
	C775.997070,457.992218 775.934021,457.968872 776.555664,457.939026 
	C777.025635,457.593414 777.495667,457.247803 777.991943,456.972168 
	C777.991943,456.972168 777.918396,456.958984 778.388489,456.751282 
	C778.578857,456.473541 778.769287,456.195831 778.984497,455.990051 
	C778.984497,455.990051 778.915100,455.958923 779.386108,455.754608 
	C779.575134,455.476807 779.764160,455.198975 779.956909,454.998901 
	C779.956909,454.998901 779.898315,454.947632 780.545410,454.678497 
	C783.296143,451.311218 785.417969,447.800232 785.076416,443.109802 
	C784.770874,438.913757 784.915161,434.674042 785.079102,430.462128 
	C785.122681,429.343719 785.968872,428.256531 786.446533,427.155029 
	C787.413574,427.627747 788.383484,428.094696 789.347168,428.574097 
	C794.849915,431.311493 800.158936,434.612885 805.922607,436.588013 
	C809.580566,437.841583 814.125610,437.874817 817.296082,433.141693 
	C823.091431,429.057312 825.207764,423.507385 823.665771,416.637024 
	C822.042358,409.404266 816.864319,405.020935 810.869751,401.496521 
	C805.832214,398.534790 800.618164,395.873444 795.482239,393.079132 
	C798.451416,391.908997 801.290588,392.366852 803.919373,391.817657 
	C810.188965,390.507874 816.742798,389.560272 822.479431,386.932831 
	C831.029053,383.017029 834.301147,373.626099 831.212219,365.509827 
	C828.249512,357.725006 821.085632,353.973663 811.550598,356.826965 
	C803.886780,359.120300 796.734070,363.121613 788.973816,365.982483 
	C788.843262,365.858673 788.712646,365.734894 788.750488,364.884918 
	C792.232483,356.095795 794.595825,347.164673 791.942810,337.667999 
	C790.126831,331.167328 786.455750,326.138855 779.672913,324.412048 
	C773.263916,322.780365 767.893188,325.170441 763.526794,329.944061 
	C754.327759,340.001129 753.104797,352.130707 754.489807,364.929840 
	C754.626282,366.191071 754.720398,367.456909 754.834106,368.720581 
	C754.421936,368.862274 754.009705,369.003967 753.597534,369.145660 
	C751.516235,366.831421 749.439392,364.513214 747.352966,362.203644 
	C740.784302,354.932465 733.447937,349.287384 722.845947,350.094208 
	C710.183899,351.057770 703.582397,360.700684 707.358093,372.802948 
	C710.504395,382.887939 717.317444,389.118500 727.404053,391.790070 
	C730.588806,392.633606 733.906799,392.973877 736.202515,393.376038 
	C730.096924,397.828278 723.053467,401.809723 717.472778,407.282654 
	C706.997070,417.556152 707.570618,431.422668 718.157776,440.411560 
	C723.135498,444.644226 729.150024,444.450531 732.995544,439.997040 
	C732.995544,439.997040 732.939026,439.967529 733.695679,439.981812 
	C735.113770,439.286194 736.531860,438.590576 737.999390,437.952301 
	C737.999390,437.952301 737.923645,437.953979 738.400879,437.751251 
	C738.589966,437.469971 738.779114,437.188660 738.986450,436.978455 
	C738.986450,436.978455 738.913696,436.968872 739.393494,436.772308 
z"/>
<path fill="#AE94C7" opacity="1.000000" stroke="none" 
	d="
M945.238159,870.707031 
	C945.330261,868.113892 945.684082,865.225281 945.943665,862.328308 
	C946.651917,854.422424 947.914490,846.513306 947.918396,838.604919 
	C948.026489,620.377502 948.049683,402.150024 947.853394,183.922729 
	C947.844849,174.455566 945.619446,164.990417 944.684937,155.278366 
	C948.768799,166.873840 949.921143,179.056046 949.916626,191.443954 
	C949.870117,318.604034 949.878784,445.764099 949.877319,572.924194 
	C949.876282,662.252930 950.020569,751.582153 949.692261,840.909668 
	C949.656067,850.747437 946.933411,860.575256 945.238159,870.707031 
z"/>
<path fill="#A78AC3" opacity="1.000000" stroke="none" 
	d="
M80.947083,154.402130 
	C80.306183,159.814896 79.511032,165.579773 78.745392,171.348572 
	C78.463196,173.474777 78.036926,175.610184 78.036606,177.741440 
	C78.002815,401.565369 77.991890,625.389343 78.070808,849.213257 
	C78.072708,854.609192 79.099266,860.004761 79.386581,865.672607 
	C78.099281,856.556946 76.185478,847.169861 76.177658,837.781250 
	C75.999001,623.242188 76.044090,408.702911 75.981110,194.163681 
	C75.977188,180.798172 76.977211,167.620697 80.947083,154.402130 
z"/>
<path fill="#A386C2" opacity="1.000000" stroke="none" 
	d="
M856.229248,83.618134 
	C817.383362,83.955170 778.235474,83.971718 739.087585,83.986679 
	C729.940796,83.990173 720.794067,83.988808 711.647278,83.988808 
	C559.632629,83.988815 407.617920,83.988678 255.603256,83.988609 
	C240.051163,83.988602 224.498947,84.029762 208.947037,83.975700 
	C197.189758,83.934822 185.432892,83.772476 173.374359,83.390091 
	C182.707886,82.745605 192.342804,82.054443 201.977905,82.052002 
	C413.504303,81.998314 625.030701,82.009804 836.557129,82.082336 
	C843.013977,82.084549 849.470581,82.874420 856.229248,83.618134 
z"/>
<path fill="#9874BB" opacity="1.000000" stroke="none" 
	d="
M183.570221,942.889221 
	C184.866409,942.563965 186.619965,942.040100 188.373611,942.039795 
	C404.528931,942.000854 620.684204,941.999512 836.839539,942.011475 
	C839.325439,942.011658 841.811340,942.212219 844.597412,942.590210 
	C790.742920,942.918274 736.588196,943.020630 682.433472,943.023743 
	C517.964600,943.033264 353.495728,943.004578 189.026871,942.988220 
	C187.360443,942.988037 185.694031,942.953552 183.570221,942.889221 
z"/>
<path fill="#A386C2" opacity="1.000000" stroke="none" 
	d="
M170.582657,83.200005 
	C167.188507,84.037842 163.425415,84.857498 159.379395,85.421753 
	C162.802231,84.504829 166.507965,83.843323 170.582657,83.200005 
z"/>
<path fill="#A386C2" opacity="1.000000" stroke="none" 
	d="
M868.796997,85.657738 
	C865.143066,85.418022 861.217346,84.896736 856.992920,84.073105 
	C860.637817,84.305893 864.581604,84.841034 868.796997,85.657738 
z"/>
<path fill="#A386C2" opacity="1.000000" stroke="none" 
	d="
M871.593384,86.059685 
	C871.076294,86.234314 870.199402,86.330475 869.175476,86.154617 
	C869.763489,85.915474 870.498474,85.948349 871.593384,86.059685 
z"/>
<path fill="#FBF9F7" opacity="1.000000" stroke="none" 
	d="
M496.612244,395.103241 
	C508.917755,363.121979 521.170105,331.123199 536.681641,300.494080 
	C552.577332,269.106354 571.871094,240.060913 596.778076,215.107056 
	C612.367371,199.488434 630.149780,187.036926 652.468323,182.718735 
	C667.389099,179.831879 682.155457,179.767090 696.743225,184.825439 
	C715.030640,191.166687 727.137878,207.730804 728.019836,227.078247 
	C729.338318,256.002777 719.764221,281.812714 705.188782,305.927612 
	C667.056335,369.017395 611.657104,410.385101 542.382446,434.097534 
	C540.229370,434.834503 538.120483,437.637970 537.272766,439.948334 
	C529.714050,460.549652 522.675171,481.342712 515.043213,501.916046 
	C496.094055,552.996582 474.686066,602.967285 446.523163,649.776672 
	C441.122223,658.753540 435.157654,667.398132 429.262268,676.066223 
	C427.646667,678.441650 427.332550,679.773743 429.982483,681.671631 
	C462.986237,705.307617 494.964020,730.486938 530.695618,750.056152 
	C558.357117,765.205566 587.119568,777.747070 618.388550,783.574280 
	C621.647827,784.181641 624.958557,784.513245 629.078979,784.988159 
	C642.897888,784.952942 655.883240,784.902405 668.868591,784.851807 
	C696.666565,781.335388 719.899963,768.799500 739.587646,749.177551 
	C748.400574,740.393982 755.342957,730.317200 760.868896,719.216248 
	C761.387451,718.174500 761.663208,716.634460 762.502869,716.202271 
	C764.818176,715.010559 767.769836,713.076843 769.719910,713.717957 
	C771.617371,714.341736 774.055786,718.083862 773.685242,719.944580 
	C772.600647,725.390137 770.815369,730.878967 768.275574,735.822021 
	C752.194458,767.119690 726.869751,788.137939 693.884644,801.439148 
	C656.940430,815.140930 619.950623,814.971069 582.834473,806.388367 
	C569.641785,803.337708 556.949036,798.125549 544.028076,793.900146 
	C544.028076,793.900085 544.005676,793.973145 543.804260,793.709961 
	C542.079163,792.928162 540.555481,792.409546 539.031799,791.890930 
	C539.031799,791.890930 539.004517,791.965332 538.825684,791.689209 
	C537.773743,791.245789 536.900574,791.078491 536.027405,790.911194 
	C536.027405,790.911194 536.008789,790.992615 535.917175,790.667969 
	C535.229187,790.198364 534.632812,790.053467 534.036438,789.908569 
	C534.036438,789.908569 534.038086,789.997742 533.927368,789.636597 
	C531.237366,788.088440 528.658020,786.901306 526.078674,785.714233 
	C495.028290,769.764648 466.398346,750.099915 438.859924,728.777039 
	C428.871002,721.042603 419.026337,713.121826 407.100647,703.692749 
	C406.509064,704.997803 406.113647,707.036499 404.916473,708.337280 
	C385.036255,729.938171 363.126373,748.945312 336.103241,761.258728 
	C322.734253,767.350525 308.815887,771.668457 294.281067,773.986389 
	C292.080597,774.337341 289.978729,775.306458 287.192078,775.680664 
	C275.108093,775.153625 263.663269,774.935608 252.218430,774.717590 
	C240.400742,771.954041 228.780243,768.799194 218.444046,761.968567 
	C196.931152,747.751831 186.370865,722.519287 190.665161,697.035583 
	C192.997971,683.191956 198.367477,671.016357 207.220978,659.562744 
	C207.724899,658.718872 207.907593,658.374146 208.090302,658.029358 
	C208.090302,658.029358 208.018646,658.015015 208.268311,657.951843 
	C208.706421,657.601746 208.894882,657.314758 209.083344,657.027832 
	C209.083344,657.027832 209.008636,657.018127 209.296234,656.880859 
	C209.751236,656.174805 209.918655,655.606018 210.086060,655.037231 
	C210.086060,655.037231 210.016052,655.004822 210.326660,655.034546 
	C210.783905,654.724670 210.930542,654.385071 211.077194,654.045410 
	C211.077194,654.045410 211.006805,654.008911 211.317078,654.024109 
	C211.777405,653.708008 211.927475,653.376648 212.077560,653.045349 
	C212.077560,653.045349 212.009155,653.006348 212.315277,653.017517 
	C212.773499,652.700562 212.925598,652.372498 213.077698,652.044373 
	C213.077682,652.044373 213.008423,652.007629 213.312347,652.016968 
	C213.770508,651.698853 213.924759,651.371338 214.078995,651.043884 
	C214.078995,651.043884 214.007904,651.011230 214.316864,651.018799 
	C214.775085,650.700500 214.924347,650.374573 215.073624,650.048645 
	C215.073624,650.048645 215.003433,650.015015 215.330780,650.101562 
	C216.129959,649.804810 216.601807,649.421448 217.073639,649.038025 
	C217.073624,649.038025 217.012039,649.006775 217.259918,648.943359 
	C217.701767,648.596252 217.895752,648.312561 218.089706,648.028809 
	C218.089691,648.028809 218.016968,648.019226 218.275604,647.965576 
	C218.716156,647.619507 218.898087,647.327148 219.080017,647.034729 
	C219.080017,647.034729 219.012512,647.011719 219.329498,646.983154 
	C219.940659,646.657532 220.234848,646.360535 220.529022,646.063477 
	C220.529037,646.063477 220.780807,646.125061 221.160919,645.943848 
	C222.058777,645.196350 222.576508,644.630066 223.094254,644.063843 
	C223.094254,644.063843 223.032196,644.013672 223.304993,643.985474 
	C223.743698,643.652893 223.909592,643.348450 224.075500,643.044067 
	C224.075485,643.044067 224.001511,643.022461 224.367676,643.069275 
	C226.185928,642.100342 227.638000,641.084595 229.090073,640.068848 
	C229.090073,640.068848 229.015381,640.025574 229.382690,640.011719 
	C232.523514,638.355164 235.296997,636.712341 238.070496,635.069580 
	C238.070496,635.069580 238.008484,635.012634 238.335968,635.072754 
	C239.131607,634.780884 239.599747,634.428894 240.067871,634.076965 
	C240.067871,634.076965 240.023056,634.004028 240.366669,634.087280 
	C241.500198,633.797546 242.290131,633.424622 243.080078,633.051758 
	C243.080078,633.051758 243.009476,633.025269 243.403076,633.030090 
	C248.216599,631.380981 252.636505,629.727051 257.056396,628.073059 
	C257.056396,628.073059 257.012482,628.001953 257.451843,628.096252 
	C264.605377,627.133545 271.319519,626.076477 278.487518,625.054993 
	C282.278107,625.033691 285.614807,624.976929 288.951538,624.920166 
	C290.361908,624.953491 291.772308,624.986816 293.995178,625.039490 
	C296.110596,625.102600 297.413452,625.146423 298.716339,625.190247 
	C306.857910,626.645569 315.087738,627.727295 323.124481,629.626221 
	C347.329620,635.345581 369.377899,646.179138 391.290802,659.334656 
	C429.143799,590.842224 454.452728,517.419800 479.637207,443.033173 
	C476.996979,443.033173 475.093109,442.997101 473.190979,443.038544 
	C443.664520,443.681671 414.780426,439.914001 386.956390,429.761200 
	C360.822876,420.225250 338.320648,405.420715 323.456665,381.327118 
	C306.631622,354.054779 305.433075,324.989258 317.337891,295.682343 
	C331.115875,261.764069 356.850586,241.990204 392.907684,236.504425 
	C402.285339,235.077682 412.130951,236.680222 421.758209,236.995743 
	C423.041443,237.037796 424.354004,237.580368 425.567719,238.093018 
	C429.569611,239.783356 431.725250,243.726227 430.671967,247.242966 
	C429.572815,250.912811 425.967987,252.743362 421.313751,251.617599 
	C409.491821,248.758163 397.834656,249.750320 386.417145,253.344910 
	C366.087250,259.745361 353.907806,274.822754 346.059265,293.559906 
	C330.976959,329.566284 343.598175,371.333649 376.078003,395.069275 
	C390.095856,405.313232 405.712128,412.122650 423.038666,417.021606 
	C442.261414,422.509918 461.137695,424.452179 480.361206,424.087585 
	C485.645355,423.987366 488.092712,422.205444 488.105988,417.024078 
	C488.105988,417.024078 488.029663,417.000580 488.336060,416.825745 
	C489.801758,413.114777 490.961060,409.578613 492.120361,406.042419 
	C492.120331,406.042419 492.056122,405.993347 492.351013,405.835938 
	C493.968018,402.153442 495.290131,398.628326 496.612244,395.103241 
M697.005737,206.985092 
	C697.005737,206.985092 697.074646,206.979691 696.953918,206.395645 
	C696.651428,206.138397 696.348938,205.881134 695.671021,205.069687 
	C686.308228,198.752335 676.345215,198.690613 666.118042,202.416779 
	C649.732056,208.386856 637.763733,220.075500 626.862793,233.088486 
	C610.306396,252.852615 598.771912,275.625977 589.270752,299.261139 
	C576.069214,332.101135 564.167847,365.464203 551.755005,398.620270 
	C550.044739,403.188568 548.593872,407.854004 546.763916,413.236328 
	C549.426086,412.294312 551.133972,411.727051 552.815186,411.089447 
	C572.533264,403.611267 590.830261,393.487305 608.063477,381.385925 
	C637.559998,360.673157 663.107605,336.171417 681.017883,304.507904 
	C691.725342,285.578156 699.902283,265.662048 702.977234,243.079666 
	C703.147095,242.105148 703.437317,241.134399 703.467834,240.155518 
	C703.721375,232.040924 705.836426,223.812073 702.022278,215.998672 
	C702.022278,215.998672 702.095398,215.985245 702.191345,215.249771 
	C701.481384,213.808212 700.771362,212.366669 700.014099,210.984940 
	C700.014099,210.984940 700.090210,210.981171 700.118591,210.353348 
	C699.762085,209.874084 699.405579,209.394806 699.017029,208.982407 
	C699.017029,208.982407 699.091064,208.978317 698.949585,208.442703 
	C698.643188,208.268555 698.336853,208.094391 698.013489,207.989746 
	C698.013489,207.989746 698.081665,207.967896 697.975098,207.414093 
	C697.658997,207.249146 697.342834,207.084213 697.005737,206.985092 
M235.139175,742.488159 
	C235.423615,742.682190 235.708038,742.876282 235.992798,743.004211 
	C235.992798,743.004211 235.930893,743.027527 236.265045,743.559082 
	C236.835907,743.734131 237.406769,743.909119 237.992935,744.015381 
	C237.992935,744.015381 237.924622,744.032471 237.969482,744.608948 
	C238.304764,744.767822 238.640030,744.926758 238.972336,745.011047 
	C238.972336,745.011047 238.911896,745.054932 239.087387,745.629272 
	C239.720459,746.100647 240.353516,746.571960 240.997711,746.994873 
	C240.997711,746.994873 240.952545,747.015503 241.345688,747.465332 
	C241.892776,747.676086 242.439880,747.886841 242.984726,748.023621 
	C242.984726,748.023621 242.914871,748.048096 243.254639,748.562561 
	C243.831879,748.738342 244.409119,748.914185 244.983047,749.016541 
	C244.983047,749.016541 244.920090,749.054565 245.194794,749.621887 
	C245.790039,749.778564 246.385300,749.935303 246.984634,750.015198 
	C246.984634,750.015198 246.924088,750.062561 247.244003,750.694214 
	C263.150269,758.109253 279.414093,757.242737 296.572754,752.715027 
	C334.267029,741.267334 356.680298,712.566650 377.746246,681.637695 
	C359.926575,669.018066 342.310211,657.553833 321.167908,650.969421 
	C319.448669,650.614563 317.729431,650.259766 316.005280,649.978394 
	C316.005280,649.978394 316.070557,649.944397 315.614227,649.352539 
	C299.126404,644.601929 282.624329,643.882996 265.376984,649.285278 
	C247.146271,655.237549 233.259415,666.299866 225.033005,683.875916 
	C216.350052,702.427246 219.311783,725.790161 232.087646,739.410645 
	C232.388351,739.634399 232.689041,739.858154 232.990158,740.008728 
	C232.990158,740.008728 232.917038,740.012085 233.119431,740.504395 
	C233.408768,740.697876 233.698105,740.891418 233.988876,741.010803 
	C233.988876,741.010803 233.914886,741.013794 234.118942,741.504944 
	C234.408447,741.697754 234.697968,741.890564 234.990219,742.010681 
	C234.990219,742.010681 234.917542,742.012390 235.139175,742.488159 
z"/>
<path fill="#FAF8F7" opacity="1.000000" stroke="none" 
	d="
M619.368652,633.392944 
	C632.965515,618.340820 646.473328,603.206909 660.195068,588.269531 
	C667.562744,580.249146 669.123535,570.012573 672.100159,560.178833 
	C677.059387,543.795349 672.890686,529.600647 664.567200,515.215393 
	C651.428650,492.508240 648.826904,467.908936 655.382324,442.447174 
	C657.532715,434.094788 659.747864,425.756866 662.097473,417.458771 
	C663.504211,412.490723 666.269592,411.848083 669.954712,415.618225 
	C683.376831,429.350006 691.618469,445.855164 694.812561,464.667114 
	C696.348022,473.710205 697.446289,483.042389 696.956055,492.147491 
	C696.554626,499.604523 694.437622,507.324432 691.437561,514.211853 
	C685.326416,528.241577 681.079163,542.512756 680.894714,557.887329 
	C680.875793,559.460510 680.367493,561.027832 680.446289,562.759705 
	C694.844238,545.184387 706.277466,525.754211 716.100952,505.448578 
	C725.791687,485.417511 734.533997,464.927582 743.692383,444.638977 
	C744.376404,444.746429 745.060425,444.853882 745.744446,444.961334 
	C745.841309,446.964325 746.484009,449.126526 745.953003,450.946320 
	C738.191895,477.547241 727.580872,502.983398 714.093384,527.190063 
	C708.228821,537.715393 702.059875,548.071106 695.495056,559.427979 
	C703.292969,556.301025 708.259644,551.247803 712.331665,545.478638 
	C722.184814,531.519287 732.963501,518.409729 747.037048,508.554413 
	C766.807251,494.709930 788.774414,486.826752 813.058289,485.962555 
	C815.703674,485.868408 818.355408,485.949890 822.306458,485.949890 
	C822.197388,488.083344 822.931091,491.113159 821.808716,493.088135 
	C803.836243,524.712952 779.863647,549.390625 743.108459,558.139038 
	C734.631348,560.156677 725.667053,560.212646 716.907227,560.930603 
	C710.036621,561.493713 703.784546,563.290527 697.480042,566.409668 
	C683.789734,573.183044 675.106445,584.846130 665.588623,595.956787 
	C652.492310,611.244995 638.859070,626.073425 625.453308,641.096497 
	C624.802368,641.825989 624.126831,642.533630 622.905273,643.853943 
	C639.337036,638.910400 653.897949,632.541382 666.381958,621.390930 
	C680.368713,608.898071 696.965881,600.874451 716.138916,596.688843 
	C727.259399,596.422180 737.618652,596.304871 747.977844,596.187622 
	C755.168030,599.090088 762.567017,601.573914 769.483643,605.024841 
	C775.231689,607.892700 775.465515,610.748352 770.595398,614.881592 
	C754.536133,628.510864 737.615173,640.954712 716.969482,646.717285 
	C701.558960,651.018677 685.528503,652.359314 670.173157,647.692932 
	C651.734436,642.089600 635.324463,647.288452 619.155212,654.560059 
	C611.842102,657.848938 604.986633,662.589355 598.706726,667.644226 
	C588.220642,676.084778 578.363586,685.306824 567.771851,694.638733 
	C566.019104,696.145325 564.736206,697.213074 563.453369,698.280823 
	C563.670837,698.605835 563.888306,698.930786 564.105774,699.255737 
	C566.430603,698.190491 568.755493,697.125244 571.080383,696.060059 
	C571.080383,696.060059 571.005493,696.034912 571.365479,696.054504 
	C572.839600,695.411926 573.953796,694.749756 575.067932,694.087646 
	C575.067932,694.087646 575.048279,694.007141 575.384705,694.128906 
	C576.502197,693.857239 577.283264,693.463745 578.064392,693.070312 
	C578.064392,693.070312 578.010864,693.008057 578.358093,693.083130 
	C579.496643,692.791809 580.287903,692.425415 581.079224,692.059021 
	C581.079224,692.059021 581.003235,692.037537 581.387390,692.045227 
	C584.539673,690.718872 587.307861,689.384827 590.076050,688.050781 
	C590.076050,688.050781 590.008362,688.018616 590.318726,688.022583 
	C591.113770,687.701416 591.598511,687.376282 592.083252,687.051147 
	C592.083252,687.051208 592.014771,687.022217 592.321167,687.027100 
	C593.112244,686.709961 593.596802,686.388000 594.081360,686.065979 
	C594.081360,686.065979 594.001282,686.044128 594.378052,686.057617 
	C596.526062,685.072754 598.297241,684.074341 600.068420,683.075928 
	C600.068420,683.075928 600.012634,683.006531 600.344177,683.090332 
	C601.137390,682.807495 601.598999,682.440857 602.060669,682.074219 
	C602.060669,682.074219 602.011292,682.001526 602.384766,682.113647 
	C604.192444,681.508972 605.626526,680.792175 607.060669,680.075439 
	C607.060669,680.075500 607.014282,680.001648 607.407959,680.093872 
	C609.892883,679.474792 611.984009,678.763550 614.075195,678.052246 
	C614.075195,678.052246 614.007568,678.022034 614.455566,678.047302 
	C624.763794,676.344116 634.380310,678.106506 643.980469,680.102905 
	C643.980469,680.102905 643.990356,680.026917 644.178955,680.306824 
	C647.229553,681.760376 650.091553,682.934021 652.953552,684.107666 
	C652.953552,684.107727 652.995117,684.045166 653.004639,684.315857 
	C653.332275,684.754395 653.650391,684.922241 653.968506,685.090088 
	C653.968506,685.090088 653.972168,685.010864 654.090942,685.317627 
	C654.793579,685.777954 655.377502,685.931580 655.961426,686.085205 
	C655.961426,686.085205 655.998657,686.017151 655.978882,686.319458 
	C656.292908,686.776550 656.626648,686.931335 656.960449,687.086121 
	C656.960449,687.086121 656.991821,687.018188 657.017456,687.292236 
	C657.349182,687.741028 657.655151,687.915710 657.961182,688.090332 
	C657.961182,688.090332 657.985657,688.019104 658.037231,688.279541 
	C658.383789,688.723328 658.678772,688.906616 658.973816,689.089905 
	C658.973816,689.089905 658.983826,689.017700 659.046631,689.267029 
	C659.397400,689.707092 659.685303,689.897827 659.973206,690.088562 
	C659.973206,690.088562 659.984558,690.016907 660.052368,690.269775 
	C660.404724,690.734375 660.689209,690.946167 660.973694,691.157959 
	C661.727722,692.025757 662.481750,692.893555 663.623047,694.158020 
	C664.328796,694.729187 664.647217,694.903625 664.965637,695.078064 
	C664.965637,695.078064 664.977905,695.006775 664.938232,695.332275 
	C665.242798,696.129883 665.587097,696.601929 665.931335,697.074036 
	C665.931335,697.074036 665.986328,697.016663 665.908325,697.414673 
	C665.855774,698.867981 665.881226,699.923340 665.906738,700.978638 
	C665.906677,700.978638 665.978699,700.989441 665.705444,701.014954 
	C665.259949,701.353149 665.087769,701.665771 664.915527,701.978455 
	C664.915527,701.978455 664.985657,701.990967 664.731689,702.076660 
	C664.211975,702.424988 663.946289,702.687683 663.680664,702.950317 
	C653.685730,705.277832 643.770996,708.069641 633.675354,709.814758 
	C621.201965,711.970886 609.299561,708.344177 597.543335,704.595032 
	C579.286621,698.772766 562.499268,703.236938 546.455688,712.100342 
	C540.168091,715.573975 534.602051,720.690552 525.362427,719.243652 
	C526.494873,717.251221 527.052429,715.146423 528.419495,714.063477 
	C533.757812,709.835022 539.007263,705.299744 544.933960,702.055298 
	C553.402893,697.419067 555.627930,690.227478 556.098877,681.463440 
	C556.732666,669.670044 553.550537,658.869080 549.173462,648.101685 
	C543.070374,633.088623 539.963257,617.546082 543.990173,601.349854 
	C545.834412,593.932678 550.313782,592.757751 555.748352,598.083191 
	C573.630981,615.606812 578.970581,643.606018 569.160950,668.431458 
	C567.098816,673.650208 565.026184,678.864929 563.857117,684.865234 
	C571.057068,678.910706 578.294739,673.000854 585.439819,666.981201 
	C588.619812,664.302124 591.550110,661.328369 594.702820,658.615051 
	C605.444702,649.370178 610.156982,637.213196 611.320068,623.525024 
	C611.539246,620.945679 610.247925,618.079712 609.139832,615.573120 
	C604.097107,604.166260 598.547363,592.974304 593.780151,581.456726 
	C584.798706,559.757507 584.363281,537.109375 587.466675,514.230652 
	C588.380432,507.494415 589.846863,500.832733 591.074097,494.139496 
	C592.208618,487.951752 595.666382,486.200806 600.446472,490.088898 
	C619.620911,505.685089 633.334229,524.689331 637.041077,549.869690 
	C640.313110,572.096436 634.360657,592.685181 626.403992,612.970825 
	C623.914490,619.318054 621.340027,625.631897 618.570435,632.503540 
	C618.680481,633.161621 619.024597,633.277283 619.368652,633.392944 
M616.121094,557.224792 
	C615.517944,555.390991 614.914795,553.557251 614.193237,550.962524 
	C613.097778,547.532959 612.002258,544.103333 610.906799,540.673767 
	C610.357544,540.826172 609.808350,540.978638 609.259094,541.131042 
	C610.806396,548.200806 612.353760,555.270508 613.894470,563.192932 
	C615.197754,572.873230 616.501038,582.553589 617.819214,593.120056 
	C618.054749,596.806763 618.290344,600.493469 618.525879,604.180176 
	C619.293762,604.106873 620.061584,604.033630 620.829468,603.960388 
	C620.172791,592.671753 619.516113,581.383179 618.931946,569.453003 
	C618.715149,568.865051 618.498352,568.277039 618.216797,566.884766 
	C617.497803,563.898193 616.778870,560.911682 616.034607,557.997925 
	C616.034607,557.997925 616.109131,557.978149 616.121094,557.224792 
M762.997070,520.800049 
	C746.075012,526.717468 733.415527,538.662720 720.726074,550.573547 
	C736.362732,542.460876 750.339355,531.920898 764.538147,520.917847 
	C764.507751,520.690796 764.477356,520.463806 764.446899,520.236755 
	C764.210693,520.399963 763.974426,520.563110 762.997070,520.800049 
M677.953491,507.617889 
	C677.953491,513.147339 677.953491,518.676819 677.953491,524.206299 
	C678.505371,524.184387 679.057190,524.162537 679.609070,524.140625 
	C682.341370,505.564087 682.498901,487.114594 675.706665,469.007721 
	C676.449951,481.556427 677.193176,494.105133 677.953491,507.617889 
M671.039429,630.516968 
	C669.289185,631.394775 667.538879,632.272522 665.788574,633.150330 
	C665.963379,633.564697 666.138123,633.979065 666.312866,634.393433 
	C681.929504,629.744812 697.546204,625.096252 713.162842,620.447632 
	C712.996155,619.873596 712.829407,619.299561 712.662659,618.725525 
	C698.430054,620.391541 684.765625,624.179504 671.039429,630.516968 
z"/>
<path fill="#FBF8F7" opacity="1.000000" stroke="none" 
	d="
M745.815125,430.970276 
	C745.529846,431.019806 745.301514,431.161316 744.796204,431.712952 
	C744.281189,432.343079 744.100159,432.655090 743.919189,432.967102 
	C743.919189,432.967102 743.989014,432.986938 743.714722,433.023529 
	C743.266113,433.359772 743.091736,433.659424 742.917358,433.959045 
	C742.917358,433.959045 742.989441,433.985352 742.700806,434.008850 
	C742.250061,434.340454 742.088013,434.648560 741.926025,434.956665 
	C741.925964,434.956635 741.994751,434.985474 741.675964,434.934509 
	C740.887268,435.248260 740.417358,435.612946 739.947388,435.977600 
	C739.947388,435.977600 739.996216,436.003052 739.747620,436.067322 
	C739.303955,436.410675 739.108826,436.689789 738.913696,436.968872 
	C738.913696,436.968872 738.986450,436.978455 738.708252,437.016418 
	C738.261230,437.354248 738.092407,437.654114 737.923584,437.953979 
	C737.923645,437.953979 737.999390,437.952301 737.620972,437.891541 
	C735.808044,438.543030 734.373535,439.255280 732.939026,439.967529 
	C732.939026,439.967529 732.995544,439.997040 732.574585,440.001465 
	C727.391418,439.935822 722.629150,439.865784 717.866882,439.795746 
	C707.570618,431.422668 706.997070,417.556152 717.472778,407.282654 
	C723.053467,401.809723 730.096924,397.828278 736.202515,393.376038 
	C733.906799,392.973877 730.588806,392.633606 727.404053,391.790070 
	C717.317444,389.118500 710.504395,382.887939 707.358093,372.802948 
	C703.582397,360.700684 710.183899,351.057770 722.845947,350.094208 
	C733.447937,349.287384 740.784302,354.932465 747.352966,362.203644 
	C749.439392,364.513214 751.516235,366.831421 753.597534,369.145660 
	C754.009705,369.003967 754.421936,368.862274 754.834106,368.720581 
	C754.720398,367.456909 754.626282,366.191071 754.489807,364.929840 
	C753.104797,352.130707 754.327759,340.001129 763.526794,329.944061 
	C767.893188,325.170441 773.263916,322.780365 779.672913,324.412048 
	C786.455750,326.138855 790.126831,331.167328 791.942810,337.667999 
	C794.595825,347.164673 792.232483,356.095795 788.481873,365.449219 
	C788.249268,366.272430 788.285217,366.531311 788.321228,366.790222 
	C788.665710,366.648529 789.010132,366.506805 789.354553,366.365082 
	C796.734070,363.121613 803.886780,359.120300 811.550598,356.826965 
	C821.085632,353.973663 828.249512,357.725006 831.212219,365.509827 
	C834.301147,373.626099 831.029053,383.017029 822.479431,386.932831 
	C816.742798,389.560272 810.188965,390.507874 803.919373,391.817657 
	C801.290588,392.366852 798.451416,391.908997 795.482239,393.079132 
	C800.618164,395.873444 805.832214,398.534790 810.869751,401.496521 
	C816.864319,405.020935 822.042358,409.404266 823.665771,416.637024 
	C825.207764,423.507385 823.091431,429.057312 816.701660,433.510010 
	C807.001038,437.062744 799.189331,434.625610 792.082825,428.561737 
	C789.059631,425.982056 785.744873,423.743988 782.562622,421.350677 
	C785.336609,433.226929 784.702576,444.228485 779.898315,454.947632 
	C779.898315,454.947632 779.956909,454.998901 779.666138,454.978149 
	C779.221863,455.291260 779.068481,455.625092 778.915100,455.958923 
	C778.915100,455.958923 778.984497,455.990051 778.695251,455.998962 
	C778.243469,456.324890 778.080933,456.641937 777.918396,456.958984 
	C777.918396,456.958984 777.991943,456.972168 777.672607,456.930664 
	C776.880188,457.249084 776.407104,457.609009 775.934021,457.968872 
	C775.934021,457.968872 775.997070,457.992218 775.656433,458.038757 
	C774.366394,458.697510 773.416931,459.309692 772.467529,459.921875 
	C772.467529,459.921875 772.342712,459.748260 771.797485,459.803223 
	C767.180359,459.213226 763.108398,458.568298 759.036438,457.923370 
	C759.036438,457.923370 759.103271,457.945557 759.087524,457.601318 
	C758.407471,456.798370 757.743103,456.339630 757.078735,455.880890 
	C757.078735,455.880890 757.021606,455.928497 756.983521,455.682404 
	C756.643188,455.262329 756.341064,455.088348 756.038879,454.914368 
	C756.038879,454.914368 756.014282,454.985382 755.990967,454.696777 
	C755.659912,454.246643 755.352173,454.085114 755.044495,453.923553 
	C755.044495,453.923553 755.110962,453.958008 755.142578,453.558472 
	C754.425354,451.121338 753.676514,449.083710 752.927673,447.046082 
	C752.914734,446.562653 752.901794,446.079193 752.760254,444.856201 
	C752.631714,437.059235 752.631714,430.001831 752.631714,423.093048 
	C751.634888,424.400940 750.281067,426.177246 748.927246,427.953552 
	C748.927246,427.953552 748.983459,427.994629 748.745361,428.066589 
	C748.311462,428.419281 748.115662,428.700012 747.919922,428.980774 
	C747.919922,428.980774 747.989563,428.989746 747.748169,429.064148 
	C747.311218,429.419434 747.115723,429.700256 746.920227,429.981079 
	C746.920227,429.981079 746.989929,429.989807 746.738220,430.062683 
	C746.262756,430.413818 746.038940,430.692047 745.815125,430.970276 
M756.382019,398.959106 
	C759.524963,403.500458 764.042603,405.488007 769.280212,404.513519 
	C774.715149,403.502350 778.409546,399.965576 779.684265,394.369202 
	C780.835083,389.316864 778.940674,385.190094 775.278259,381.898315 
	C771.044556,378.092987 764.073120,377.849976 759.582275,381.071045 
	C754.157410,384.962067 752.855896,391.142944 756.382019,398.959106 
z"/>
<path fill="#A386C2" opacity="1.000000" stroke="none" 
	d="
M544.161255,794.230835 
	C556.949036,798.125549 569.641785,803.337708 582.834473,806.388367 
	C619.950623,814.971069 656.940430,815.140930 693.558105,801.654297 
	C692.826599,802.474304 691.903931,803.757874 690.693298,804.148315 
	C676.806885,808.626160 662.725891,811.892822 648.075134,813.142273 
	C620.083862,815.529358 592.941223,811.554260 566.294861,803.483582 
	C558.752563,801.199097 551.616699,797.572510 544.161255,794.230835 
z"/>
<path fill="#A386C2" opacity="1.000000" stroke="none" 
	d="
M780.221863,454.813049 
	C784.702576,444.228485 785.336609,433.226929 782.562622,421.350677 
	C785.744873,423.743988 789.059631,425.982056 792.082825,428.561737 
	C799.189331,434.625610 807.001038,437.062744 816.515259,433.773926 
	C814.125610,437.874817 809.580566,437.841583 805.922607,436.588013 
	C800.158936,434.612885 794.849915,431.311493 789.347168,428.574097 
	C788.383484,428.094696 787.413574,427.627747 786.446533,427.155029 
	C785.968872,428.256531 785.122681,429.343719 785.079102,430.462128 
	C784.915161,434.674042 784.770874,438.913757 785.076416,443.109802 
	C785.417969,447.800232 783.296143,451.311218 780.221863,454.813049 
z"/>
<path fill="#A386C2" opacity="1.000000" stroke="none" 
	d="
M487.795288,417.219360 
	C488.092712,422.205444 485.645355,423.987366 480.361206,424.087585 
	C461.137695,424.452179 442.261414,422.509918 423.417999,417.029724 
	C427.017853,417.412079 430.956879,418.012909 434.913635,418.455231 
	C448.691284,419.995392 462.453400,421.765564 476.269562,422.814484 
	C480.454987,423.132233 485.752777,423.324036 487.795288,417.219360 
z"/>
<path fill="#A386C2" opacity="1.000000" stroke="none" 
	d="
M643.782288,679.789673 
	C634.380310,678.106506 624.763794,676.344116 614.460266,678.084045 
	C618.437439,677.394653 622.906921,675.914795 627.265869,676.189514 
	C632.752563,676.535217 638.148804,678.315308 643.782288,679.789673 
z"/>
<path fill="#9C7DBA" opacity="1.000000" stroke="none" 
	d="
M668.593750,784.590637 
	C655.883240,784.902405 642.897888,784.952942 629.502869,784.945679 
	C632.278259,784.921814 635.466370,785.061890 638.647705,784.969360 
	C647.561340,784.710266 656.471802,784.342834 665.384644,784.055054 
	C666.358765,784.023560 667.340576,784.232178 668.593750,784.590637 
z"/>
<path fill="#9874BB" opacity="1.000000" stroke="none" 
	d="
M252.047714,774.975098 
	C263.663269,774.935608 275.108093,775.153625 286.793274,775.672974 
	C283.932251,776.321960 280.813354,777.073486 277.732758,776.940063 
	C269.105713,776.566589 260.494476,775.827454 252.047714,774.975098 
z"/>
<path fill="#A386C2" opacity="1.000000" stroke="none" 
	d="
M749.328918,428.053955 
	C750.281067,426.177246 751.634888,424.400940 752.631714,423.093048 
	C752.631714,430.001831 752.631714,437.059235 752.644287,444.511108 
	C752.099792,443.235687 751.292114,441.603149 751.036560,439.888367 
	C750.456848,435.998535 750.148987,432.068207 749.328918,428.053955 
z"/>
<path fill="#9C7DBA" opacity="1.000000" stroke="none" 
	d="
M747.762878,595.856934 
	C737.618652,596.304871 727.259399,596.422180 716.520020,596.518555 
	C718.139282,595.709717 720.153381,594.215332 722.135559,594.256531 
	C730.611450,594.432983 739.078003,595.062195 747.762878,595.856934 
z"/>
<path fill="#A386C2" opacity="1.000000" stroke="none" 
	d="
M718.012329,440.103638 
	C722.629150,439.865784 727.391418,439.935822 732.569641,439.969971 
	C729.150024,444.450531 723.135498,444.644226 718.012329,440.103638 
z"/>
<path fill="#A386C2" opacity="1.000000" stroke="none" 
	d="
M278.033661,625.019531 
	C271.319519,626.076477 264.605377,627.133545 257.458984,628.137451 
	C262.053436,627.052490 267.080139,626.020752 272.972198,624.995117 
	C275.236267,625.007385 276.634979,625.013428 278.033661,625.019531 
z"/>
<path fill="#A386C2" opacity="1.000000" stroke="none" 
	d="
M256.650391,628.049988 
	C252.636505,629.727051 248.216599,631.380981 243.409958,633.067200 
	C247.430298,631.408630 251.837357,629.717773 256.650391,628.049988 
z"/>
<path fill="#A386C2" opacity="1.000000" stroke="none" 
	d="
M496.294922,395.162903 
	C495.290131,398.628326 493.968018,402.153442 492.356964,405.875916 
	C493.371216,402.456360 494.674408,398.839447 496.294922,395.162903 
z"/>
<path fill="#A386C2" opacity="1.000000" stroke="none" 
	d="
M491.782440,406.180786 
	C490.961060,409.578613 489.801758,413.114777 488.354126,416.861389 
	C489.191986,413.487579 490.318268,409.903381 491.782440,406.180786 
z"/>
<path fill="#A386C2" opacity="1.000000" stroke="none" 
	d="
M759.233398,458.226868 
	C763.108398,458.568298 767.180359,459.213226 771.697510,459.841064 
	C767.605652,462.336761 763.438721,461.212433 759.233398,458.226868 
z"/>
<path fill="#A785CA" opacity="1.000000" stroke="none" 
	d="
M278.487518,625.055054 
	C276.634979,625.013428 275.236267,625.007385 273.418335,624.998657 
	C278.118134,624.783203 283.237213,624.570374 288.653931,624.638916 
	C285.614807,624.976929 282.278107,625.033691 278.487518,625.055054 
z"/>
<path fill="#A386C2" opacity="1.000000" stroke="none" 
	d="
M237.694885,635.050720 
	C235.296997,636.712341 232.523514,638.355164 229.395813,640.052856 
	C231.800842,638.415771 234.560059,636.723816 237.694885,635.050720 
z"/>
<path fill="#A386C2" opacity="1.000000" stroke="none" 
	d="
M570.711426,696.040283 
	C568.755493,697.125244 566.430603,698.190491 564.105774,699.255737 
	C563.888306,698.930786 563.670837,698.605835 563.453369,698.280823 
	C564.736206,697.213074 566.019104,696.145325 567.593201,694.914551 
	C568.703796,695.174622 569.523132,695.597595 570.711426,696.040283 
z"/>
<path fill="#A386C2" opacity="1.000000" stroke="none" 
	d="
M652.815735,683.777466 
	C650.091553,682.934021 647.229553,681.760376 644.144226,680.322998 
	C646.839905,681.188599 649.758911,682.317871 652.815735,683.777466 
z"/>
<path fill="#A386C2" opacity="1.000000" stroke="none" 
	d="
M526.168762,786.065857 
	C528.658020,786.901306 531.237366,788.088440 533.944458,789.595398 
	C531.467773,788.749329 528.863281,787.583374 526.168762,786.065857 
z"/>
<path fill="#A386C2" opacity="1.000000" stroke="none" 
	d="
M589.689148,688.044556 
	C587.307861,689.384827 584.539673,690.718872 581.402466,692.081787 
	C583.789673,690.753174 586.545959,689.395752 589.689148,688.044556 
z"/>
<path fill="#A386C2" opacity="1.000000" stroke="none" 
	d="
M752.669678,447.278961 
	C753.676514,449.083710 754.425354,451.121338 755.159119,453.524902 
	C754.233276,451.764526 753.322510,449.638184 752.669678,447.278961 
z"/>
<path fill="#A386C2" opacity="1.000000" stroke="none" 
	d="
M599.700562,683.055542 
	C598.297241,684.074341 596.526062,685.072754 594.398193,686.093994 
	C595.805176,685.089539 597.568970,684.062317 599.700562,683.055542 
z"/>
<path fill="#A386C2" opacity="1.000000" stroke="none" 
	d="
M613.673279,678.039185 
	C611.984009,678.763550 609.892883,679.474792 607.416382,680.136597 
	C609.111145,679.400208 611.191223,678.713196 613.673279,678.039185 
z"/>
<path fill="#A785CA" opacity="1.000000" stroke="none" 
	d="
M299.015076,625.111206 
	C297.413452,625.146423 296.110596,625.102600 294.417236,625.003052 
	C295.920319,624.671326 297.813416,624.392029 299.709259,624.132812 
	C299.775421,624.123718 299.950562,624.385132 299.937195,624.400452 
	C299.743225,624.622986 299.525726,624.825073 299.015076,625.111206 
z"/>
<path fill="#A386C2" opacity="1.000000" stroke="none" 
	d="
M228.739838,640.076904 
	C227.638000,641.084595 226.185928,642.100342 224.388519,643.101685 
	C225.491989,642.086487 226.940796,641.085693 228.739838,640.076904 
z"/>
<path fill="#A386C2" opacity="1.000000" stroke="none" 
	d="
M606.698486,680.057129 
	C605.626526,680.792175 604.192444,681.508972 602.396118,682.156006 
	C603.468140,681.403870 604.902283,680.721375 606.698486,680.057129 
z"/>
<path fill="#A386C2" opacity="1.000000" stroke="none" 
	d="
M539.177246,792.230591 
	C540.555481,792.409546 542.079163,792.928162 543.840271,793.697144 
	C542.492676,793.488342 540.907654,793.029297 539.177246,792.230591 
z"/>
<path fill="#A386C2" opacity="1.000000" stroke="none" 
	d="
M733.317383,439.974670 
	C734.373535,439.255280 735.808044,438.543030 737.596191,437.862854 
	C736.531860,438.590576 735.113770,439.286194 733.317383,439.974670 
z"/>
<path fill="#A386C2" opacity="1.000000" stroke="none" 
	d="
M574.710938,694.061523 
	C573.953796,694.749756 572.839600,695.411926 571.378418,696.091797 
	C572.138855,695.418152 573.246338,694.726746 574.710938,694.061523 
z"/>
<path fill="#A386C2" opacity="1.000000" stroke="none" 
	d="
M772.872620,459.933624 
	C773.416931,459.309692 774.366394,458.697510 775.643799,458.007629 
	C775.073730,458.601776 774.175720,459.273560 772.872620,459.933624 
z"/>
<path fill="#A386C2" opacity="1.000000" stroke="none" 
	d="
M666.185181,700.782043 
	C665.881226,699.923340 665.855774,698.867981 665.868652,697.416992 
	C666.092468,698.209351 666.278015,699.397400 666.185181,700.782043 
z"/>
<path fill="#A386C2" opacity="1.000000" stroke="none" 
	d="
M757.092224,456.221100 
	C757.743103,456.339630 758.407471,456.798370 759.097595,457.567566 
	C758.450806,457.439148 757.778259,457.000214 757.092224,456.221100 
z"/>
<path fill="#A386C2" opacity="1.000000" stroke="none" 
	d="
M580.729614,692.043945 
	C580.287903,692.425415 579.496643,692.791809 578.364563,693.123657 
	C578.809204,692.735718 579.594604,692.382324 580.729614,692.043945 
z"/>
<path fill="#A386C2" opacity="1.000000" stroke="none" 
	d="
M577.718079,693.048340 
	C577.283264,693.463745 576.502197,693.857239 575.376282,694.169434 
	C575.811584,693.734314 576.591675,693.380371 577.718079,693.048340 
z"/>
<path fill="#A386C2" opacity="1.000000" stroke="none" 
	d="
M222.764282,644.080444 
	C222.576508,644.630066 222.058777,645.196350 221.271393,645.876099 
	C221.479248,645.358704 221.956772,644.727844 222.764282,644.080444 
z"/>
<path fill="#A386C2" opacity="1.000000" stroke="none" 
	d="
M536.220581,791.196289 
	C536.900574,791.078491 537.773743,791.245789 538.863220,791.676453 
	C538.190979,791.787048 537.302368,791.634216 536.220581,791.196289 
z"/>
<path fill="#A386C2" opacity="1.000000" stroke="none" 
	d="
M242.730133,633.038330 
	C242.290131,633.424622 241.500198,633.797546 240.370239,634.129883 
	C240.813553,633.734497 241.596893,633.379761 242.730133,633.038330 
z"/>
<path fill="#A386C2" opacity="1.000000" stroke="none" 
	d="
M665.926270,696.763489 
	C665.587097,696.601929 665.242798,696.129883 664.903809,695.343384 
	C665.246460,695.503601 665.583862,695.978271 665.926270,696.763489 
z"/>
<path fill="#A386C2" opacity="1.000000" stroke="none" 
	d="
M534.192322,790.173096 
	C534.632812,790.053467 535.229187,790.198364 535.944763,790.636597 
	C535.492065,790.765808 534.920105,790.601685 534.192322,790.173096 
z"/>
<path fill="#A386C2" opacity="1.000000" stroke="none" 
	d="
M740.255981,435.960144 
	C740.417358,435.612946 740.887268,435.248260 741.661438,434.900177 
	C741.498657,435.258759 741.031616,435.600708 740.255981,435.960144 
z"/>
<path fill="#A386C2" opacity="1.000000" stroke="none" 
	d="
M591.768433,687.055115 
	C591.598511,687.376282 591.113770,687.701416 590.326660,688.059204 
	C590.500732,687.747620 590.977173,687.403381 591.768433,687.055115 
z"/>
<path fill="#A386C2" opacity="1.000000" stroke="none" 
	d="
M593.767212,686.067871 
	C593.596802,686.388000 593.112244,686.709961 592.322021,687.064209 
	C592.495361,686.754272 592.974243,686.411987 593.767212,686.067871 
z"/>
<path fill="#A386C2" opacity="1.000000" stroke="none" 
	d="
M655.805664,685.817017 
	C655.377502,685.931580 654.793579,685.777954 654.061279,685.343872 
	C654.491882,685.225281 655.070862,685.387085 655.805664,685.817017 
z"/>
<path fill="#A386C2" opacity="1.000000" stroke="none" 
	d="
M601.751343,682.074097 
	C601.598999,682.440857 601.137390,682.807495 600.354553,683.133545 
	C600.502930,682.753357 600.972473,682.413696 601.751343,682.074097 
z"/>
<path fill="#A386C2" opacity="1.000000" stroke="none" 
	d="
M216.763092,649.046875 
	C216.601807,649.421448 216.129959,649.804810 215.348389,650.136353 
	C215.509964,649.741577 215.981262,649.398682 216.763092,649.046875 
z"/>
<path fill="#A386C2" opacity="1.000000" stroke="none" 
	d="
M239.756393,634.074585 
	C239.599747,634.428894 239.131607,634.780884 238.346375,635.113525 
	C238.501160,634.753601 238.973038,634.412903 239.756393,634.074585 
z"/>
<path fill="#A386C2" opacity="1.000000" stroke="none" 
	d="
M209.820282,655.194397 
	C209.918655,655.606018 209.751236,656.174805 209.318176,656.911499 
	C209.219849,656.503418 209.387161,655.927490 209.820282,655.194397 
z"/>
<path fill="#A386C2" opacity="1.000000" stroke="none" 
	d="
M776.244873,457.953979 
	C776.407104,457.609009 776.880188,457.249084 777.659424,456.895691 
	C777.495667,457.247803 777.025635,457.593414 776.244873,457.953979 
z"/>
<path fill="#A386C2" opacity="1.000000" stroke="none" 
	d="
M778.153442,456.855133 
	C778.080933,456.641937 778.243469,456.324890 778.682861,455.962982 
	C778.769287,456.195831 778.578857,456.473541 778.153442,456.855133 
z"/>
<path fill="#A386C2" opacity="1.000000" stroke="none" 
	d="
M663.962036,702.869080 
	C663.946289,702.687683 664.211975,702.424988 664.730713,702.041016 
	C664.737000,702.209045 664.490173,702.498413 663.962036,702.869080 
z"/>
<path fill="#A386C2" opacity="1.000000" stroke="none" 
	d="
M217.848572,648.131226 
	C217.895752,648.312561 217.701767,648.596252 217.262604,648.977783 
	C217.214096,648.794983 217.410767,648.514343 217.848572,648.131226 
z"/>
<path fill="#A386C2" opacity="1.000000" stroke="none" 
	d="
M743.156189,433.859070 
	C743.091736,433.659424 743.266113,433.359772 743.702759,432.989258 
	C743.775024,433.198639 743.585022,433.478851 743.156189,433.859070 
z"/>
<path fill="#A386C2" opacity="1.000000" stroke="none" 
	d="
M218.840836,647.138489 
	C218.898087,647.327148 218.716156,647.619507 218.281738,648.001709 
	C218.220047,647.808411 218.410843,647.525330 218.840836,647.138489 
z"/>
<path fill="#A386C2" opacity="1.000000" stroke="none" 
	d="
M220.213440,646.128296 
	C220.234848,646.360535 219.940659,646.657532 219.336075,647.018188 
	C219.316406,646.785583 219.607117,646.489319 220.213440,646.128296 
z"/>
<path fill="#A386C2" opacity="1.000000" stroke="none" 
	d="
M223.835526,643.143555 
	C223.909592,643.348450 223.743698,643.652893 223.306274,644.025391 
	C223.221710,643.809998 223.408630,643.526550 223.835526,643.143555 
z"/>
<path fill="#A386C2" opacity="1.000000" stroke="none" 
	d="
M744.175049,432.851013 
	C744.100159,432.655090 744.281189,432.343079 744.708374,431.898712 
	C744.779968,432.089203 744.605469,432.412079 744.175049,432.851013 
z"/>
<path fill="#A386C2" opacity="1.000000" stroke="none" 
	d="
M746.074951,430.877441 
	C746.038940,430.692047 746.262756,430.413818 746.734375,430.027802 
	C746.766418,430.208191 746.550598,430.496399 746.074951,430.877441 
z"/>
<path fill="#A386C2" opacity="1.000000" stroke="none" 
	d="
M747.159180,429.874512 
	C747.115723,429.700256 747.311218,429.419434 747.743774,429.029358 
	C747.786621,429.202728 747.592407,429.485352 747.159180,429.874512 
z"/>
<path fill="#A386C2" opacity="1.000000" stroke="none" 
	d="
M748.158813,428.875061 
	C748.115662,428.700012 748.311462,428.419281 748.745544,428.031769 
	C748.788452,428.206451 748.593018,428.487885 748.158813,428.875061 
z"/>
<path fill="#A386C2" opacity="1.000000" stroke="none" 
	d="
M756.138184,455.155243 
	C756.341064,455.088348 756.643188,455.262329 757.016052,455.700348 
	C756.803650,455.774963 756.520630,455.585541 756.138184,455.155243 
z"/>
<path fill="#A386C2" opacity="1.000000" stroke="none" 
	d="
M657.860535,687.851440 
	C657.655151,687.915710 657.349182,687.741028 656.981323,687.302002 
	C657.199646,687.229187 657.479797,687.420837 657.860535,687.851440 
z"/>
<path fill="#A386C2" opacity="1.000000" stroke="none" 
	d="
M755.145996,454.160156 
	C755.352173,454.085114 755.659912,454.246643 756.026672,454.685120 
	C755.806335,454.773590 755.526855,454.585144 755.145996,454.160156 
z"/>
<path fill="#A386C2" opacity="1.000000" stroke="none" 
	d="
M207.819214,658.174438 
	C207.907593,658.374146 207.724899,658.718872 207.305115,659.249268 
	C207.228043,659.063110 207.388092,658.691284 207.819214,658.174438 
z"/>
<path fill="#A386C2" opacity="1.000000" stroke="none" 
	d="
M738.162231,437.852600 
	C738.092407,437.654114 738.261230,437.354248 738.699097,436.980896 
	C738.779114,437.188660 738.589966,437.469971 738.162231,437.852600 
z"/>
<path fill="#A386C2" opacity="1.000000" stroke="none" 
	d="
M208.845703,657.133972 
	C208.894882,657.314758 208.706421,657.601746 208.275238,657.987671 
	C208.224380,657.804504 208.416229,657.522278 208.845703,657.133972 
z"/>
<path fill="#A386C2" opacity="1.000000" stroke="none" 
	d="
M739.153564,436.870605 
	C739.108826,436.689789 739.303955,436.410675 739.744873,436.039917 
	C739.791565,436.222931 739.592529,436.497620 739.153564,436.870605 
z"/>
<path fill="#A386C2" opacity="1.000000" stroke="none" 
	d="
M653.865723,684.852051 
	C653.650391,684.922241 653.332275,684.754395 652.967163,684.314026 
	C653.201050,684.232361 653.481995,684.423157 653.865723,684.852051 
z"/>
<path fill="#A386C2" opacity="1.000000" stroke="none" 
	d="
M210.843155,654.146240 
	C210.930542,654.385071 210.783905,654.724670 210.342468,655.069763 
	C210.234818,654.799133 210.421967,654.523071 210.843155,654.146240 
z"/>
<path fill="#A386C2" opacity="1.000000" stroke="none" 
	d="
M656.861633,686.849121 
	C656.626648,686.931335 656.292908,686.776550 655.943420,686.335205 
	C656.206116,686.236511 656.484436,686.424316 656.861633,686.849121 
z"/>
<path fill="#A386C2" opacity="1.000000" stroke="none" 
	d="
M211.841675,653.144714 
	C211.927475,653.376648 211.777405,653.708008 211.336639,654.058594 
	C211.232574,653.799927 211.419189,653.521973 211.841675,653.144714 
z"/>
<path fill="#A386C2" opacity="1.000000" stroke="none" 
	d="
M665.153809,701.873657 
	C665.087769,701.665771 665.259949,701.353149 665.696777,700.979614 
	C665.771606,701.202087 665.581787,701.485474 665.153809,701.873657 
z"/>
<path fill="#A386C2" opacity="1.000000" stroke="none" 
	d="
M212.842468,652.144592 
	C212.925598,652.372498 212.773499,652.700562 212.333221,653.052551 
	C212.232437,652.799255 212.419830,652.522034 212.842468,652.144592 
z"/>
<path fill="#A386C2" opacity="1.000000" stroke="none" 
	d="
M658.868774,688.850464 
	C658.678772,688.906616 658.383789,688.723328 658.000732,688.288818 
	C658.196411,688.228699 658.480103,688.419861 658.868774,688.850464 
z"/>
<path fill="#A386C2" opacity="1.000000" stroke="none" 
	d="
M659.869019,689.847534 
	C659.685303,689.897827 659.397400,689.707092 659.010437,689.271240 
	C659.195862,689.219604 659.480286,689.413025 659.869019,689.847534 
z"/>
<path fill="#A386C2" opacity="1.000000" stroke="none" 
	d="
M660.876099,690.903687 
	C660.689209,690.946167 660.404724,690.734375 660.016296,690.273865 
	C660.201111,690.233215 660.489746,690.441345 660.876099,690.903687 
z"/>
<path fill="#A386C2" opacity="1.000000" stroke="none" 
	d="
M213.843414,651.144348 
	C213.924759,651.371338 213.770508,651.698853 213.330261,652.051819 
	C213.232117,651.799805 213.419968,651.522339 213.843414,651.144348 
z"/>
<path fill="#A386C2" opacity="1.000000" stroke="none" 
	d="
M779.150635,455.856750 
	C779.068481,455.625092 779.221863,455.291260 779.664185,454.939270 
	C779.764160,455.198975 779.575134,455.476807 779.150635,455.856750 
z"/>
<path fill="#A386C2" opacity="1.000000" stroke="none" 
	d="
M664.840454,694.824829 
	C664.647217,694.903625 664.328796,694.729187 663.871826,694.305908 
	C664.060608,694.228577 664.388000,694.400024 664.840454,694.824829 
z"/>
<path fill="#A386C2" opacity="1.000000" stroke="none" 
	d="
M742.163696,434.857483 
	C742.088013,434.648560 742.250061,434.340454 742.684937,433.973938 
	C742.772278,434.196411 742.586792,434.477356 742.163696,434.857483 
z"/>
<path fill="#A386C2" opacity="1.000000" stroke="none" 
	d="
M214.838623,650.148621 
	C214.924347,650.374573 214.775085,650.700500 214.334961,651.053528 
	C214.230606,650.803284 214.417114,650.525940 214.838623,650.148621 
z"/>
<path fill="#B08DD5" opacity="1.000000" stroke="none" 
	d="
M702.844604,243.899323 
	C699.902283,265.662048 691.725342,285.578156 681.017883,304.507904 
	C663.107605,336.171417 637.559998,360.673157 608.063477,381.385925 
	C590.830261,393.487305 572.533264,403.611267 552.815186,411.089447 
	C551.133972,411.727051 549.426086,412.294312 546.763916,413.236328 
	C548.593872,407.854004 550.044739,403.188568 551.755005,398.620270 
	C564.167847,365.464203 576.069214,332.101135 589.270752,299.261139 
	C598.771912,275.625977 610.306396,252.852615 626.862793,233.088486 
	C637.763733,220.075500 649.732056,208.386856 666.118042,202.416779 
	C676.345215,198.690613 686.308228,198.752335 695.937012,205.638474 
	C696.493591,206.464737 696.784119,206.722214 697.074646,206.979691 
	C697.074646,206.979691 697.005737,206.985092 697.120239,207.190628 
	C697.517029,207.586746 697.799316,207.777313 698.081665,207.967896 
	C698.081665,207.967896 698.013489,207.989746 698.127075,208.195282 
	C698.524109,208.593323 698.807556,208.785828 699.091064,208.978317 
	C699.091064,208.978317 699.017029,208.982407 699.040222,209.262238 
	C699.405701,210.021774 699.747986,210.501465 700.090210,210.981171 
	C700.090210,210.981171 700.014099,210.984940 700.025757,211.318939 
	C700.723450,213.097031 701.409424,214.541138 702.095398,215.985260 
	C702.095398,215.985245 702.022278,215.998672 702.029419,216.403839 
	C702.027161,224.115677 701.965332,231.422913 702.046631,238.728577 
	C702.065796,240.454895 702.565796,242.175888 702.844604,243.899323 
z"/>
<path fill="#B08DD5" opacity="1.000000" stroke="none" 
	d="
M321.882172,651.205933 
	C342.310211,657.553833 359.926575,669.018066 377.746246,681.637695 
	C356.680298,712.566650 334.267029,741.267334 295.942322,752.512512 
	C294.345245,752.315063 293.353516,752.179688 292.415833,752.347046 
	C284.197327,753.813660 276.077728,756.020020 267.572998,754.093811 
	C260.736359,752.545410 253.810410,751.391541 246.924088,750.062561 
	C246.924088,750.062561 246.984634,750.015198 246.824051,749.785095 
	C246.082336,749.388184 245.501221,749.221375 244.920105,749.054565 
	C244.920090,749.054565 244.983047,749.016541 244.825546,748.784668 
	C244.083649,748.384644 243.499252,748.216370 242.914871,748.048096 
	C242.914871,748.048096 242.984726,748.023621 242.836182,747.788696 
	C242.109268,747.374390 241.530899,747.194946 240.952545,747.015503 
	C240.952545,747.015503 240.997711,746.994873 240.957565,746.687866 
	C240.248917,745.938904 239.580399,745.496887 238.911896,745.054932 
	C238.911896,745.054932 238.972336,745.011047 238.866196,744.812744 
	C238.481583,744.420410 238.203110,744.226440 237.924622,744.032471 
	C237.924622,744.032471 237.992935,744.015381 237.824936,743.785889 
	C237.081589,743.380127 236.506241,743.203857 235.930893,743.027527 
	C235.930893,743.027527 235.992798,743.004211 235.880951,742.799927 
	C235.485245,742.401184 235.201385,742.206787 234.917542,742.012390 
	C234.917542,742.012390 234.990219,742.010681 234.881927,741.804932 
	C234.487396,741.404053 234.201141,741.208923 233.914886,741.013794 
	C233.914886,741.013794 233.988876,741.010803 233.880829,740.806030 
	C233.487549,740.404846 233.202301,740.208435 232.917053,740.012085 
	C232.917038,740.012085 232.990158,740.008728 232.873154,739.787903 
	C232.460388,739.337097 232.164612,739.107117 231.868835,738.877136 
	C219.311783,725.790161 216.350052,702.427246 225.033005,683.875916 
	C233.259415,666.299866 247.146271,655.237549 265.989380,649.474731 
	C276.249756,648.781555 285.892273,647.306213 295.547546,647.217468 
	C302.379639,647.154724 309.228943,648.968384 316.070557,649.944336 
	C316.070557,649.944397 316.005280,649.978394 316.202209,650.221802 
	C318.226837,650.712158 320.054504,650.959045 321.882172,651.205933 
z"/>
<path fill="#9C7DBA" opacity="1.000000" stroke="none" 
	d="
M247.084045,750.378418 
	C253.810410,751.391541 260.736359,752.545410 267.572998,754.093811 
	C276.077728,756.020020 284.197327,753.813660 292.415833,752.347046 
	C293.353516,752.179688 294.345245,752.315063 295.572266,752.551025 
	C279.414093,757.242737 263.150269,758.109253 247.084045,750.378418 
z"/>
<path fill="#9C7DBA" opacity="1.000000" stroke="none" 
	d="
M315.842407,649.648438 
	C309.228943,648.968384 302.379639,647.154724 295.547546,647.217468 
	C285.892273,647.306213 276.249756,648.781555 266.351379,649.420776 
	C282.624329,643.882996 299.126404,644.601929 315.842407,649.648438 
z"/>
<path fill="#9C7DBA" opacity="1.000000" stroke="none" 
	d="
M702.910889,243.489502 
	C702.565796,242.175888 702.065796,240.454895 702.046631,238.728577 
	C701.965332,231.422913 702.027161,224.115677 702.046509,216.370819 
	C705.836426,223.812073 703.721375,232.040924 703.467834,240.155518 
	C703.437317,241.134399 703.147095,242.105148 702.910889,243.489502 
z"/>
<path fill="#9C7DBA" opacity="1.000000" stroke="none" 
	d="
M321.525024,651.087646 
	C320.054504,650.959045 318.226837,650.712158 316.204681,650.185120 
	C317.729431,650.259766 319.448669,650.614563 321.525024,651.087646 
z"/>
<path fill="#9C7DBA" opacity="1.000000" stroke="none" 
	d="
M702.143372,215.617523 
	C701.409424,214.541138 700.723450,213.097031 700.049438,211.289017 
	C700.771362,212.366669 701.481384,213.808212 702.143372,215.617523 
z"/>
<path fill="#9C7DBA" opacity="1.000000" stroke="none" 
	d="
M238.999634,745.342102 
	C239.580399,745.496887 240.248917,745.938904 240.951996,746.712036 
	C240.353516,746.571960 239.720459,746.100647 238.999634,745.342102 
z"/>
<path fill="#9C7DBA" opacity="1.000000" stroke="none" 
	d="
M241.149109,747.240479 
	C241.530899,747.194946 242.109268,747.374390 242.837311,747.825684 
	C242.439880,747.886841 241.892776,747.676086 241.149109,747.240479 
z"/>
<path fill="#9C7DBA" opacity="1.000000" stroke="none" 
	d="
M236.097961,743.293335 
	C236.506241,743.203857 237.081589,743.380127 237.817291,743.820312 
	C237.406769,743.909119 236.835907,743.734131 236.097961,743.293335 
z"/>
<path fill="#9C7DBA" opacity="1.000000" stroke="none" 
	d="
M243.084747,748.305298 
	C243.499252,748.216370 244.083649,748.384644 244.827209,748.821411 
	C244.409119,748.914185 243.831879,748.738342 243.084747,748.305298 
z"/>
<path fill="#9C7DBA" opacity="1.000000" stroke="none" 
	d="
M245.057449,749.338196 
	C245.501221,749.221375 246.082336,749.388184 246.822006,749.823486 
	C246.385300,749.935303 245.790039,749.778564 245.057449,749.338196 
z"/>
<path fill="#9C7DBA" opacity="1.000000" stroke="none" 
	d="
M700.104370,210.667252 
	C699.747986,210.501465 699.405701,210.021774 699.056274,209.228806 
	C699.405579,209.394806 699.762085,209.874084 700.104370,210.667252 
z"/>
<path fill="#9C7DBA" opacity="1.000000" stroke="none" 
	d="
M231.978241,739.143921 
	C232.164612,739.107117 232.460388,739.337097 232.872955,739.824463 
	C232.689041,739.858154 232.388351,739.634399 231.978241,739.143921 
z"/>
<path fill="#9C7DBA" opacity="1.000000" stroke="none" 
	d="
M233.018250,740.258240 
	C233.202301,740.208435 233.487549,740.404846 233.880112,740.843079 
	C233.698105,740.891418 233.408768,740.697876 233.018250,740.258240 
z"/>
<path fill="#9C7DBA" opacity="1.000000" stroke="none" 
	d="
M234.016907,741.259399 
	C234.201141,741.208923 234.487396,741.404053 234.880569,741.841187 
	C234.697968,741.890564 234.408447,741.697754 234.016907,741.259399 
z"/>
<path fill="#9C7DBA" opacity="1.000000" stroke="none" 
	d="
M235.028351,742.250244 
	C235.201385,742.206787 235.485245,742.401184 235.880783,742.833008 
	C235.708038,742.876282 235.423615,742.682190 235.028351,742.250244 
z"/>
<path fill="#9C7DBA" opacity="1.000000" stroke="none" 
	d="
M237.947052,744.320679 
	C238.203110,744.226440 238.481583,744.420410 238.867676,744.850098 
	C238.640030,744.926758 238.304764,744.767822 237.947052,744.320679 
z"/>
<path fill="#9C7DBA" opacity="1.000000" stroke="none" 
	d="
M699.020325,208.710510 
	C698.807556,208.785828 698.524109,208.593323 698.135498,208.160538 
	C698.336853,208.094391 698.643188,208.268555 699.020325,208.710510 
z"/>
<path fill="#9C7DBA" opacity="1.000000" stroke="none" 
	d="
M697.014282,206.687668 
	C696.784119,206.722214 696.493591,206.464737 696.124756,205.915558 
	C696.348938,205.881134 696.651428,206.138397 697.014282,206.687668 
z"/>
<path fill="#9C7DBA" opacity="1.000000" stroke="none" 
	d="
M698.028381,207.690994 
	C697.799316,207.777313 697.517029,207.586746 697.130737,207.157715 
	C697.342834,207.084213 697.658997,207.249146 698.028381,207.690994 
z"/>
<path fill="#A785CA" opacity="1.000000" stroke="none" 
	d="
M764.146484,521.131958 
	C750.339355,531.920898 736.362732,542.460876 720.726074,550.573547 
	C733.415527,538.662720 746.075012,526.717468 763.468567,520.865723 
	C763.940063,520.931458 764.146484,521.131958 764.146484,521.131958 
z"/>
<path fill="#A785CA" opacity="1.000000" stroke="none" 
	d="
M677.944946,507.135864 
	C677.193176,494.105133 676.449951,481.556427 675.706665,469.007721 
	C682.498901,487.114594 682.341370,505.564087 679.609070,524.140625 
	C679.057190,524.162537 678.505371,524.184387 677.953491,524.206299 
	C677.953491,518.676819 677.953491,513.147339 677.944946,507.135864 
z"/>
<path fill="#A785CA" opacity="1.000000" stroke="none" 
	d="
M671.361877,630.330811 
	C684.765625,624.179504 698.430054,620.391541 712.662659,618.725525 
	C712.829407,619.299561 712.996155,619.873596 713.162842,620.447632 
	C697.546204,625.096252 681.929504,629.744812 666.312866,634.393433 
	C666.138123,633.979065 665.963379,633.564697 665.788574,633.150330 
	C667.538879,632.272522 669.289185,631.394775 671.361877,630.330811 
z"/>
<path fill="#B08DD5" opacity="1.000000" stroke="none" 
	d="
M618.281494,567.689087 
	C618.498352,568.277039 618.715149,568.865051 618.631470,570.061768 
	C618.445679,573.289001 618.727783,575.913269 618.637878,578.524597 
	C618.480347,583.098511 618.094543,587.664551 617.804321,592.233887 
	C616.501038,582.553589 615.197754,572.873230 613.925415,562.296631 
	C613.972473,559.269287 613.988647,557.138367 614.256531,555.198059 
	C615.041870,556.251892 615.575500,557.115051 616.109131,557.978149 
	C616.109131,557.978149 616.034607,557.997925 616.030212,558.387878 
	C616.777710,561.748230 617.529602,564.718689 618.281494,567.689087 
z"/>
<path fill="#9C7DBA" opacity="1.000000" stroke="none" 
	d="
M617.811768,592.677002 
	C618.094543,587.664551 618.480347,583.098511 618.637878,578.524597 
	C618.727783,575.913269 618.445679,573.289001 618.595215,570.382568 
	C619.516113,581.383179 620.172791,592.671753 620.829468,603.960388 
	C620.061584,604.033630 619.293762,604.106873 618.525879,604.180176 
	C618.290344,600.493469 618.054749,596.806763 617.811768,592.677002 
z"/>
<path fill="#A386C2" opacity="1.000000" stroke="none" 
	d="
M614.004822,555.007385 
	C613.988647,557.138367 613.972473,559.269287 613.928711,561.870239 
	C612.353760,555.270508 610.806396,548.200806 609.259094,541.131042 
	C609.808350,540.978638 610.357544,540.826172 610.906799,540.673767 
	C612.002258,544.103333 613.097778,547.532959 614.174683,551.411865 
	C614.156067,551.861145 614.003235,551.995117 613.753052,552.177856 
	C613.666992,553.237915 613.831055,554.115295 613.997559,554.996216 
	C614.000000,554.999695 614.004822,555.007385 614.004822,555.007385 
z"/>
<path fill="#A386C2" opacity="1.000000" stroke="none" 
	d="
M618.249146,567.286926 
	C617.529602,564.718689 616.777710,561.748230 616.042847,558.351440 
	C616.778870,560.911682 617.497803,563.898193 618.249146,567.286926 
z"/>
<path fill="#A386C2" opacity="1.000000" stroke="none" 
	d="
M616.115112,557.601440 
	C615.575500,557.115051 615.041870,556.251892 614.256531,555.198059 
	C614.004822,555.007385 614.000000,554.999695 613.999756,554.621704 
	C614.000793,553.494202 614.002014,552.744629 614.003235,551.995117 
	C614.003235,551.995117 614.156067,551.861145 614.233887,551.792297 
	C614.914795,553.557251 615.517944,555.390991 616.115112,557.601440 
z"/>
<path fill="#A785CA" opacity="1.000000" stroke="none" 
	d="
M763.839111,520.828857 
	C763.974426,520.563110 764.210693,520.399963 764.446899,520.236755 
	C764.477356,520.463806 764.507751,520.690796 764.342285,521.024902 
	C764.146484,521.131958 763.940063,520.931458 763.839111,520.828857 
z"/>
<path fill="#B18ED5" opacity="1.000000" stroke="none" 
	d="
M619.193970,633.211670 
	C619.024597,633.277283 618.680481,633.161621 618.497803,632.862183 
	C618.779236,632.795776 618.899231,632.913086 619.193970,633.211670 
z"/>
<path fill="#AF8CD3" opacity="1.000000" stroke="none" 
	d="
M756.165649,398.641907 
	C752.855896,391.142944 754.157410,384.962067 759.582275,381.071045 
	C764.073120,377.849976 771.044556,378.092987 775.278259,381.898315 
	C778.940674,385.190094 780.835083,389.316864 779.684265,394.369202 
	C778.409546,399.965576 774.715149,403.502350 769.280212,404.513519 
	C764.042603,405.488007 759.524963,403.500458 756.165649,398.641907 
z"/>
<path fill="#B18ED5" opacity="1.000000" stroke="none" 
	d="
M789.164185,366.173798 
	C789.010132,366.506805 788.665710,366.648529 788.321228,366.790222 
	C788.285217,366.531311 788.249268,366.272430 788.397705,365.812317 
	C788.712646,365.734894 788.843262,365.858673 789.164185,366.173798 
z"/>
<path fill="#B08DD5" opacity="1.000000" stroke="none" 
	d="
M613.753052,552.177856 
	C614.002014,552.744629 614.000793,553.494202 613.997314,554.618164 
	C613.831055,554.115295 613.666992,553.237915 613.753052,552.177856 
z"/>
</svg>